<svg xmlns="http://www.w3.org/2000/svg" xmlns:xlink="http://www.w3.org/1999/xlink" width="269" height="371"><defs>
<path id="a" d="M154.373 102.405c29.103 0 52.696-22.924 52.696-51.202C207.069 22.924 183.476 0 154.373 0c-29.104 0-52.697 22.924-52.697 51.203 0 28.278 23.593 51.202 52.697 51.202zm22.884 9.924l-3.829 14.544a11.812 11.812 0 004.641 12.677l9.813 6.884v76.024c0 7.46 2.508 14.703 7.123 20.566l5.128 6.516a5.905 5.905 0 01.92 5.64c-11.16 31.21-31.314 56.432-60.46 75.667-23.337 15.402-46.63 28.353-69.877 38.854l-1.743.784a5.913 5.913 0 01-7.81-2.985 5.906 5.906 0 01.5-5.718 3516.732 3516.732 0 0024.543-36.766H0v-82.712h46.53a150.042 150.042 0 0130.985-65.747 174.143 174.143 0 0166.28-49.892l33.462-14.336zm-72.725 92.323c-5.242 7.312-15.157 19.863-29.744 37.652h43.44v32.55c5.1-8.32 9.614-15.912 13.545-22.78 11.466-20.032 5.438-53.562-1.722-60.979-7.87-8.151-20.684 6.814-25.519 13.557zm88.745-96.934c18.263-5.35 31.942-7.492 41.038-6.426l.53.066c17.413 2.28 31.208 15.896 33.68 33.328l.097.72c.7 5.511.427 10.712-.821 15.602-2.672 10.464-11.751 27.132-27.24 50.005l-38.153-59.979 4.995-18.094a1 1 0 00-.247-.963z"/></defs>
<g fill="none" fill-rule="evenodd"><mask id="b" fill="#fff"><use xlink:href="#a"/></mask>
<use fill="#fff" xlink:href="#a"/><path d="M-106.126-47.847h473.145v472.583h-473.145z" mask="url(#b)"/></g></svg>
