<svg xmlns="http://www.w3.org/2000/svg" width="782" height="208" viewBox="0 0 782 208">
    <g fill="none" fill-rule="evenodd" transform="translate(-1)">
        <circle cx="683" cy="100" r="100" fill="#F9F9F9"/>
        <g fill="#3C3F40" fill-rule="nonzero">
            <path d="M684.844 126.108a2.627 2.627 0 0 0-1.844-.764c-.686 0-1.359.279-1.844.764a2.628 2.628 0 0 0-.764 1.845c0 .686.278 1.356.764 1.844a2.63 2.63 0 0 0 1.844.764c.686 0 1.36-.279 1.844-.764a2.629 2.629 0 0 0 .765-1.844c0-.69-.28-1.36-.765-1.845z"/>
            <path d="M735.488 47.086h-15.443v-8.868A5.224 5.224 0 0 0 714.828 33h-63.655a5.224 5.224 0 0 0-5.218 5.218v8.868h-15.443c-4 0-7.253 3.249-7.253 7.24v77.346c0 3.992 3.254 7.24 7.253 7.24h39.7v12.051c-6.582.667-11.735 6.24-11.735 12.994a2.609 2.609 0 0 0 2.609 2.608h43.828a2.609 2.609 0 0 0 2.609-2.608c0-6.754-5.154-12.327-11.735-12.994v-12.051h39.7c4 0 7.253-3.248 7.253-7.24V54.327c0-3.992-3.253-7.24-7.253-7.24zm-107.012 7.24c0-1.114.913-2.022 2.036-2.022h15.443v17.48a2.609 2.609 0 0 0 5.217 0V38.218h63.655v78.78h-63.655V88.663a2.609 2.609 0 0 0-5.217 0v28.335h-17.48V54.327zm73.383 107.022h-37.718c1.077-3.047 3.986-5.235 7.397-5.235H694.462c3.411 0 6.32 2.189 7.397 5.235zm-26.43-10.452v-11.984h15.142v11.984h-15.142zm62.095-19.224a2.031 2.031 0 0 1-2.036 2.022H630.512a2.032 2.032 0 0 1-2.036-2.022v-9.456h109.048v9.456zm0-14.674h-17.479V52.304h15.443c1.123 0 2.036.908 2.036 2.023v62.67z"/>
            <path d="M683 43.435c-10.645 0-19.305 8.66-19.305 19.305 0 5.492 2.308 10.451 6.001 13.97.095.104.196.203.308.292A19.23 19.23 0 0 0 683 82.046a19.23 19.23 0 0 0 12.997-5.044c.111-.089.213-.188.307-.293 3.693-3.518 6.001-8.477 6.001-13.969 0-10.645-8.66-19.305-19.305-19.305zm0 33.393c-3.01 0-5.8-.952-8.09-2.566A9.542 9.542 0 0 1 683 69.83a9.542 9.542 0 0 1 8.091 4.433 14.005 14.005 0 0 1-8.09 2.566zm-2.685-14.902v-1.323A2.688 2.688 0 0 1 683 57.918a2.688 2.688 0 0 1 2.685 2.685v1.323A2.688 2.688 0 0 1 683 64.611a2.688 2.688 0 0 1-2.685-2.685zm14.475 8.512a14.688 14.688 0 0 0-5.132-4.262 7.853 7.853 0 0 0 1.245-4.25v-1.324c0-4.357-3.545-7.902-7.903-7.902-4.357 0-7.903 3.545-7.903 7.902v1.324c0 1.563.459 3.021 1.246 4.25a14.683 14.683 0 0 0-5.132 4.262 14 14 0 0 1-2.298-7.698c0-7.767 6.32-14.087 14.087-14.087 7.768 0 14.088 6.32 14.088 14.087a14 14 0 0 1-2.298 7.698zM650.408 76.81a2.627 2.627 0 0 0-1.844-.765c-.686 0-1.359.28-1.844.765a2.628 2.628 0 0 0-.765 1.844c0 .686.28 1.36.765 1.844a2.629 2.629 0 0 0 1.844.765c.686 0 1.36-.28 1.844-.765a2.629 2.629 0 0 0 .765-1.844c0-.686-.28-1.36-.765-1.844zM699.175 88.307h-30.262a2.609 2.609 0 0 0 0 5.217h30.262a2.609 2.609 0 0 0 0-5.217zM701.019 100.55a2.626 2.626 0 0 0-1.844-.765c-.686 0-1.36.28-1.844.765a2.629 2.629 0 0 0-.765 1.844c0 .686.28 1.36.765 1.844a2.629 2.629 0 0 0 1.844.765c.686 0 1.36-.28 1.844-.765a2.628 2.628 0 0 0 .765-1.844c0-.686-.28-1.359-.765-1.844zM689.176 99.785h-20.263a2.609 2.609 0 0 0 0 5.218h20.263a2.609 2.609 0 0 0 0-5.218z"/>
        </g>
        <text fill="#444" font-family="OpenSans-Regular, Open Sans" font-size="20">
            <tspan x="0" y="176">On average a candidate sends 150 resumes </tspan> <tspan x="0" y="203">before landing a job</tspan>
        </text>
        <text fill="#05A9EE" font-family="OpenSans-SemiBold, Open Sans" font-size="48" font-weight="500">
            <tspan x="0" y="52">No more copy + </tspan> <tspan x="0" y="117">pasting</tspan>
        </text>
    </g>
</svg>
