<?xml version="1.0" encoding="UTF-8"?>
<svg width="120px" height="126px" viewBox="0 0 120 126" version="1.1" xmlns="http://www.w3.org/2000/svg" xmlns:xlink="http://www.w3.org/1999/xlink">
    <!-- Generator: Sketch 59.1 (86144) - https://sketch.com -->
    <title>application</title>
    <desc>Created with Sketch.</desc>
    <g id="----◉-SKIPPED-|-LANDING-PAGE" stroke="none" stroke-width="1" fill="none" fill-rule="evenodd">
        <g id="LANDING-PAGE" transform="translate(-120.000000, -2188.000000)" fill="#3C3F40" fill-rule="nonzero">
            <g id="Section---Information" transform="translate(0.000000, 2071.000000)">
                <g id="value-prop-1" transform="translate(80.000000, 80.000000)">
                    <g id="application" transform="translate(40.000000, 37.000000)">
                        <path d="M49.0991803,77.7538525 C52.4468852,74.5468033 54.537541,70.0379508 54.537541,65.0468852 L54.537541,55.4286885 C56.0584426,53.4292623 56.9638525,50.9370492 56.9638525,48.2365574 L56.9638525,38.1794262 C56.9638525,36.8213115 55.8629508,35.7204098 54.5048361,35.7204098 L34.2388525,35.7204098 C26.0151639,35.7204098 19.3244262,42.4109016 19.3244262,50.6348361 L19.3244262,65.0468852 C19.3244262,70.0377049 21.4153279,74.5468033 24.7627869,77.7538525 C11.0545082,78.2404918 0.0523770492,89.5421311 0.0523770492,103.366967 L0.0523770492,123.442623 C0.0523770492,124.800738 1.15327869,125.901639 2.51139344,125.901639 L71.3505738,125.901639 C72.7086885,125.901639 73.8095902,124.800738 73.8095902,123.442623 L73.8095902,103.366967 C73.8095902,89.542377 62.807459,78.2407377 49.0991803,77.7538525 Z M34.2390984,40.6386885 L52.0460656,40.6386885 L52.0460656,48.2368033 C52.0460656,52.0890984 48.9120492,55.2231148 45.06,55.2231148 L24.2427049,55.2231148 L24.2427049,54.8992623 L24.2427049,50.635082 L24.2427049,50.635082 C24.2427049,45.1229508 28.7269672,40.6386885 34.2390984,40.6386885 Z M24.2427049,65.0471311 L24.2427049,60.1409016 L45.0597541,60.1409016 C46.6743443,60.1409016 48.2144262,59.8163115 49.6195082,59.2313115 L49.6195082,65.0471311 C49.6195082,72.0437705 43.927623,77.7356557 36.9309836,77.7356557 C29.9343443,77.7356557 24.2427049,72.0437705 24.2427049,65.0471311 Z M46.905,82.6536885 L37.2917213,98.9471311 L27.6784426,82.6536885 L46.905,82.6536885 Z M68.8918033,120.983607 L68.8918033,120.983607 L63.3572951,120.983607 L63.3572951,103.78623 C63.3572951,102.428115 62.2563934,101.327213 60.8982787,101.327213 C59.5401639,101.327213 58.4392623,102.428115 58.4392623,103.78623 L58.4392623,120.983607 L16.1441803,120.983607 L16.1441803,103.78623 C16.1441803,102.428115 15.0432787,101.327213 13.6851639,101.327213 C12.3270492,101.327213 11.2261475,102.428115 11.2261475,103.78623 L11.2261475,120.983607 L4.97065574,120.983607 L4.97065574,103.366967 C4.97065574,93.1507377 12.4072131,84.6442623 22.1498361,82.9615574 L35.1737705,105.035902 C35.6159016,105.78541 36.4214754,106.245246 37.2917213,106.245246 C38.1619672,106.245246 38.9672951,105.785164 39.4096721,105.035902 L52.3645082,83.0793443 C61.7859836,85.0204918 68.8918033,93.3796721 68.8918033,103.367213 L68.8918033,120.983607 Z" id="Shape"></path>
                        <path d="M107.652295,0 L93.7468033,0 C92.3886885,0 91.2877869,1.10090164 91.2877869,2.45901639 C91.2877869,3.81713115 92.3886885,4.91803279 93.7468033,4.91803279 L107.652295,4.91803279 C111.72,4.91803279 115.029344,8.22737705 115.029344,12.295082 L115.029344,45.2392623 C115.029344,49.3069672 111.72,52.6163115 107.652295,52.6163115 L98.6879508,52.6163115 C98.0360656,52.6163115 97.4107377,52.8752459 96.9496721,53.3360656 L85.3335246,64.9465574 L85.3335246,55.075082 C85.3335246,53.7169672 84.232623,52.6160656 82.8745082,52.6160656 L61.9145902,52.6160656 C60.5564754,52.6160656 59.4555738,53.7169672 59.4555738,55.075082 C59.4555738,56.4331967 60.5564754,57.5340984 61.9145902,57.5340984 L80.4154918,57.5340984 L80.4154918,70.8809016 C80.4154918,71.8753279 81.0145082,72.7718852 81.9331967,73.152541 C82.237623,73.2786885 82.5570492,73.339918 82.8740164,73.339918 C83.5138525,73.339918 84.142623,73.090082 84.6130328,72.619918 L99.7064754,57.5338525 L107.652541,57.5338525 C114.432049,57.5338525 119.947623,52.0182787 119.947623,45.2387705 L119.947623,12.295082 C119.947623,5.51557377 114.432049,0 107.652295,0 Z" id="Path"></path>
                        <path d="M86.5219672,0.720491803 C86.0645902,0.263114754 85.4301639,0 84.7834426,0 C84.1367213,0 83.5022951,0.263114754 83.044918,0.720491803 C82.587541,1.17786885 82.3244262,1.81229508 82.3244262,2.45901639 C82.3244262,3.1057377 82.587541,3.74016393 83.044918,4.19754098 C83.5022951,4.65491803 84.1367213,4.91803279 84.7834426,4.91803279 C85.4301639,4.91803279 86.0645902,4.65491803 86.5219672,4.19754098 C86.9793443,3.74016393 87.242459,3.1057377 87.242459,2.45901639 C87.242459,1.81229508 86.9793443,1.17786885 86.5219672,0.720491803 Z" id="Path"></path>
                        <path d="M75.7957377,0 L61.9145902,0 C55.135082,0 49.6195082,5.51557377 49.6195082,12.295082 L49.6195082,25.9369672 C49.6195082,27.295082 50.7204098,28.3959836 52.0785246,28.3959836 C53.4366393,28.3959836 54.537541,27.295082 54.537541,25.9369672 L54.537541,12.295082 C54.537541,8.22737705 57.8468852,4.91803279 61.9145902,4.91803279 L75.7957377,4.91803279 C77.1538525,4.91803279 78.2547541,3.81713115 78.2547541,2.45901639 C78.2547541,1.10090164 77.1538525,0 75.7957377,0 Z" id="Path"></path>
                        <path d="M52.6605738,105.021148 L49.2179508,105.021148 C47.8598361,105.021148 46.7589344,106.122049 46.7589344,107.480164 C46.7589344,108.838279 47.8598361,109.93918 49.2179508,109.93918 L52.6605738,109.93918 C54.0186885,109.93918 55.1195902,108.838279 55.1195902,107.480164 C55.1195902,106.122049 54.0186885,105.021148 52.6605738,105.021148 Z" id="Path"></path>
                        <path d="M32.8490164,64.3204918 C32.3916393,63.8631148 31.7596721,63.6 31.1104918,63.6 C30.4637705,63.6 29.8293443,63.8631148 29.3719672,64.3204918 C28.9145902,64.7778689 28.6514754,65.4122951 28.6514754,66.0590164 C28.6514754,66.7057377 28.9145902,67.3401639 29.3719672,67.797541 C29.8293443,68.254918 30.4637705,68.5180328 31.1104918,68.5180328 C31.7596721,68.5180328 32.3916393,68.254918 32.8490164,67.797541 C33.3088525,67.3401639 33.5695082,66.7057377 33.5695082,66.0590164 C33.5695082,65.4122951 33.3088525,64.7778689 32.8490164,64.3204918 Z" id="Path"></path>
                        <path d="M44.49,64.3204918 C44.032623,63.8631148 43.3981967,63.6 42.7514754,63.6 C42.1022951,63.6 41.4703279,63.8631148 41.0129508,64.3204918 C40.5531148,64.7778689 40.292459,65.4098361 40.292459,66.0590164 C40.292459,66.7057377 40.5531148,67.3401639 41.0129508,67.797541 C41.4703279,68.254918 42.1047541,68.5180328 42.7514754,68.5180328 C43.3981967,68.5180328 44.032623,68.254918 44.49,67.797541 C44.947377,67.3401639 45.2104918,66.7057377 45.2104918,66.0590164 C45.2104918,65.4122951 44.947377,64.7778689 44.49,64.3204918 Z" id="Path"></path>
                        <path d="M93.8628689,22.0067213 C93.552541,17.5057377 89.9242623,13.8777049 85.4232787,13.567377 C82.8718033,13.3908197 80.4378689,14.2527049 78.5739344,15.992459 C76.7363115,17.7078689 75.6821311,20.1334426 75.6821311,22.6468033 C75.6821311,24.004918 76.7830328,25.1058197 78.1411475,25.1058197 C79.4992623,25.1058197 80.6001639,24.004918 80.6001639,22.6468033 C80.6001639,21.4745902 81.0722951,20.3879508 81.93,19.587541 C82.7864754,18.7881148 83.9053279,18.3934426 85.0851639,18.4736066 C87.1497541,18.6159836 88.8142623,20.2802459 88.9566393,22.345082 C89.1004918,24.4315574 87.7322951,26.2753279 85.7031148,26.7292623 C83.7137705,27.1745902 82.3244262,28.9037705 82.3244262,30.9346721 L82.3244262,35.869918 C82.3244262,37.2280328 83.4253279,38.3289344 84.7834426,38.3289344 C86.1415574,38.3289344 87.242459,37.2280328 87.242459,35.869918 L87.242459,31.4119672 C91.402623,30.255 94.1638525,26.374918 93.8628689,22.0067213 Z" id="Path"></path>
                        <path d="M86.5219672,42.2557377 C86.0645902,41.7983607 85.4301639,41.5377049 84.7834426,41.5377049 C84.1367213,41.5377049 83.5022951,41.7983607 83.044918,42.2557377 C82.587541,42.7155738 82.3244262,43.347541 82.3244262,43.9967213 C82.3244262,44.6434426 82.587541,45.2778689 83.044918,45.7352459 C83.5022951,46.192623 84.1367213,46.4557377 84.7834426,46.4557377 C85.4301639,46.4557377 86.0645902,46.192623 86.5219672,45.7352459 C86.9793443,45.2778689 87.242459,44.6434426 87.242459,43.9967213 C87.242459,43.347541 86.9793443,42.7155738 86.5219672,42.2557377 Z" id="Path"></path>
                    </g>
                </g>
            </g>
        </g>
    </g>
</svg>