<?xml version="1.0" encoding="UTF-8"?>
<svg width="18px" height="18px" viewBox="0 0 18 18" version="1.1" xmlns="http://www.w3.org/2000/svg" xmlns:xlink="http://www.w3.org/1999/xlink">
    <!-- Generator: Sketch 59.1 (86144) - https://sketch.com -->
    <title>cancel</title>
    <desc>Created with Sketch.</desc>
    <g id="----◉-SKIPPED-|-DASHBOARD-PAGE-|-CANDIDATE-✅" stroke="none" stroke-width="1" fill="none" fill-rule="evenodd">
        <g id="Dashboard-Page-|-Submit-Review" transform="translate(-653.000000, -179.000000)" fill="#444444" fill-rule="nonzero">
            <g id="Modal" transform="translate(337.000000, 163.000000)">
                <g id="cancel" transform="translate(316.000000, 16.000000)">
                    <path d="M0.950769231,16.8276923 C1.24615385,17.1230769 1.61538462,17.2707692 2.02153846,17.2707692 C2.42769231,17.2707692 2.79692308,17.1230769 3.09230769,16.8276923 L9,10.92 L14.9076923,16.8276923 C15.2030769,17.1230769 15.5723077,17.2707692 15.9784615,17.2707692 C16.3846154,17.2707692 16.7538462,17.1230769 17.0492308,16.8276923 C17.64,16.2369231 17.64,15.2769231 17.0492308,14.6861538 L11.1415385,8.77846154 L17.0492308,2.87076923 C17.64,2.28 17.64,1.32 17.0492308,0.729230769 C16.4584615,0.138461538 15.4984615,0.138461538 14.9076923,0.729230769 L9,6.63692308 L3.09230769,0.729230769 C2.50153846,0.138461538 1.54153846,0.138461538 0.950769231,0.729230769 C0.36,1.32 0.36,2.28 0.950769231,2.87076923 L6.85846154,8.77846154 L0.950769231,14.6861538 C0.36,15.2769231 0.36,16.2369231 0.950769231,16.8276923 Z" id="Path"></path>
                </g>
            </g>
        </g>
    </g>
</svg>