<?xml version="1.0" encoding="UTF-8"?>
<svg width="80px" height="80px" viewBox="0 0 80 80" version="1.1" xmlns="http://www.w3.org/2000/svg" xmlns:xlink="http://www.w3.org/1999/xlink">
    <!-- Generator: Sketch 59.1 (86144) - https://sketch.com -->
    <title>handshake</title>
    <desc>Created with Sketch.</desc>
    <g id="----◉-SKIPPED-|-LANDING-PAGE" stroke="none" stroke-width="1" fill="none" fill-rule="evenodd">
        <g id="LANDING-PAGE" transform="translate(-80.000000, -1091.000000)" fill="#3C3F40" fill-rule="nonzero">
            <g id="Section---How-it-works" transform="translate(80.000000, 496.000000)">
                <g id="Skipped-Process" transform="translate(0.000000, 83.000000)">
                    <g id="Step---5" transform="translate(0.000000, 512.000000)">
                        <g id="handshake">
                            <path d="M78.4342187,38.48625 C79.2971875,38.48625 79.9965625,37.7865625 79.9965625,36.9239063 L79.9965625,26.9414062 C79.9965625,26.07875 79.2973437,25.3792187 78.4346875,25.3790625 L52.4804688,25.3728125 C52.479375,25.3728125 52.4784375,25.3728125 52.4771875,25.3728125 C49.3284375,25.3728125 46.2532813,26.6575 44.0404687,28.8975 L41.59875,31.3689062 L37.8553125,27.6246875 C36.405,26.174375 34.4765625,25.3753125 32.4253125,25.3751562 L1.5659375,25.3728125 C1.1515625,25.3728125 0.75421875,25.5375 0.46125,25.8304688 C0.168125,26.1234375 0.00359375,26.5209375 0.00359375,26.9351563 L0.00359375,57.9025 C0.00359375,58.7653125 0.703125,59.4648438 1.5659375,59.4648438 L15.50125,59.4648438 C15.7448437,60.3401563 16.20875,61.16625 16.8954687,61.8534375 C17.9603125,62.9184375 19.3592187,63.45125 20.7582812,63.45125 C20.7760938,63.45125 20.79375,63.4501563 20.8114062,63.45 C20.81125,63.4689063 20.81,63.4876563 20.81,63.5067188 C20.8098437,64.9654688 21.3776563,66.3371875 22.4090625,67.3689063 C23.4404688,68.400625 24.8120313,68.9690625 26.2709375,68.969375 C26.27125,68.969375 26.2714063,68.969375 26.2717188,68.969375 C26.2895313,68.969375 26.3071875,68.9682813 26.325,68.968125 C26.3248438,68.98625 26.32375,69.0040625 26.32375,69.0221875 C26.3234375,70.4810938 26.8914063,71.8526563 27.9228125,72.8845313 C28.9542188,73.9164063 30.325625,74.4846875 31.7845313,74.4848438 C31.7848438,74.4848438 31.7851563,74.4848438 31.7854688,74.4848438 C31.8032813,74.4848438 31.8209375,74.48375 31.83875,74.4835938 C31.8385938,74.5017188 31.8375,74.5196875 31.8375,74.5378125 C31.8373438,75.9967188 32.4051563,77.3682813 33.4365625,78.4 C34.4679688,79.4317188 35.839375,80.0004688 37.2982813,80.0004688 C37.29875,80.0004688 37.2989063,80.0004688 37.299375,80.0004688 C38.5201563,80.0004688 39.6792188,79.6010938 40.6296875,78.8667188 C41.6053125,79.6146875 42.776875,79.99 43.9490625,79.99 C45.3473438,79.99 46.745625,79.4579688 47.8104688,78.3935938 C48.8890625,77.3153125 49.420625,75.8942188 49.4070313,74.4776563 C49.4259375,74.4778125 49.4446875,74.4790625 49.46375,74.4790625 C49.4640625,74.4790625 49.464375,74.4790625 49.4648438,74.4790625 C50.9232813,74.4790625 52.2945313,73.91125 53.3260938,72.8801563 C54.4046875,71.801875 54.93625,70.3807813 54.9225,68.9640625 C54.9414062,68.9642188 54.9603125,68.9654688 54.9792188,68.9654688 C54.9795313,68.9654688 54.9796875,68.9654688 54.98,68.9654688 C56.4384375,68.9654688 57.8098438,68.3973438 58.8414063,67.3664063 C59.92,66.288125 60.4515625,64.8671875 60.4378125,63.4504688 C60.4567188,63.450625 60.475625,63.451875 60.4945313,63.451875 C60.4948438,63.451875 60.495,63.451875 60.4953125,63.451875 C61.95375,63.451875 63.3251563,62.88375 64.3567188,61.8528125 C65.0309375,61.17875 65.505625,60.3590625 65.755,59.4651563 L78.4340625,59.4651563 C79.2970313,59.4651563 79.9965625,58.7654688 79.9965625,57.9028125 L79.9965625,48.9021875 C79.9965625,48.0395313 79.296875,47.3398438 78.4340625,47.3398438 C77.57125,47.3398438 76.8717188,48.0395313 76.8717188,48.9021875 L76.8717188,56.34 L71.5596875,56.34 L71.5596875,28.90375 C71.5596875,28.7646875 71.5396875,28.6304687 71.505625,28.5020312 L76.8717188,28.5032813 L76.8717188,36.92375 C76.871875,37.7865625 77.57125,38.48625 78.4342187,38.48625 Z M20.7584375,60.32875 C20.7582813,60.32875 20.758125,60.32875 20.7579688,60.32875 C20.1335938,60.3285937 19.5470313,60.0853125 19.1054688,59.64375 C18.6640625,59.2023437 18.4210938,58.6154687 18.4212499,57.99125 C18.4214063,57.3670312 18.6645313,56.7803125 19.1060938,56.3389062 L22.4154688,53.0307812 C22.8710938,52.5753125 23.4692188,52.3476562 24.0676563,52.3476562 C24.66625,52.3476562 25.2648438,52.575625 25.7204688,53.03125 C26.6314063,53.9426562 26.6310938,55.4253125 25.7198438,56.33625 L22.410625,59.6445312 C21.9692188,60.0857812 21.3823438,60.32875 20.7584375,60.32875 Z M26.271875,65.8442188 C26.2717187,65.8442188 26.2717187,65.8442188 26.2715625,65.8442188 C25.6471875,65.8440625 25.060625,65.6007813 24.6192187,65.1592188 C24.1778125,64.7178125 23.9348437,64.1310938 23.9349999,63.5067188 C23.9351562,62.8825 24.1784375,62.2957813 24.6198437,61.854375 L27.9290625,58.5460938 C28.3704687,58.1048438 28.9571875,57.861875 29.58125,57.861875 C29.58125,57.861875 29.5815625,57.861875 29.5817188,57.861875 C30.2060938,57.8620313 30.7926563,58.1053125 31.2342187,58.5467187 L31.2342187,58.546875 C32.1453125,59.4582812 32.145,60.9407813 31.23375,61.8517188 L27.924375,65.1598438 C27.4828125,65.60125 26.8959375,65.8442188 26.271875,65.8442188 Z M30.1326563,70.675 C29.2215625,69.7635937 29.2217188,68.2807813 30.1332813,67.3698438 L33.4426562,64.0617187 C33.8840625,63.6204687 34.4707813,63.3775 35.0948438,63.3775 C35.095,63.3775 35.0951563,63.3775 35.0953125,63.3775 C35.7195313,63.3775 36.30625,63.6207812 36.7476562,64.0621875 C37.6585938,64.9735937 37.6584375,66.4564062 36.7471875,67.3673437 L33.4378125,70.6754687 C32.5265625,71.5865625 31.0439063,71.58625 30.1326563,70.675 Z M39.52625,75.6164062 C39.5259375,75.6167188 39.5254688,75.6170312 39.5251563,75.6173437 C39.5248438,75.6176562 39.5245313,75.618125 39.5240625,75.6184375 L38.95125,76.1910937 C38.5098438,76.6323438 37.9232813,76.8753125 37.2992188,76.8753125 C37.2990625,76.8753125 37.2989063,76.8753125 37.29875,76.8753125 C36.674375,76.8751563 36.0878125,76.631875 35.64625,76.1903125 C35.2048438,75.7489063 34.961875,75.1620312 34.9620312,74.5378125 C34.9621875,73.9135937 35.2053125,73.326875 35.646875,72.8854688 L38.95625,69.5773437 C39.3976563,69.1360938 39.984375,68.8929687 40.6085938,68.8929687 C40.60875,68.8929687 40.60875,68.8929687 40.60875,68.8929687 C41.2332813,68.893125 41.8198438,69.1364062 42.26125,69.5778125 L42.26125,69.5779687 C42.7026563,70.019375 42.945625,70.6060937 42.9454688,71.2304688 C42.9453125,71.8546875 42.7020313,72.4414062 42.260625,72.8828125 L39.52625,75.6164062 Z M45.6014063,76.1832813 C44.8796875,76.9046875 43.8007812,77.0523438 42.9304688,76.6315625 L44.4696875,75.0928125 C45.055625,74.5070312 45.4915625,73.8115625 45.759375,73.0528125 C46.5092188,73.97 46.4565625,75.3284375 45.6014063,76.1832813 Z M62.1478125,59.6425 C61.7065625,60.0835937 61.1198438,60.3267187 60.495625,60.3267187 C60.4954688,60.3267187 60.4953125,60.3267187 60.4953125,60.3267187 C59.8709375,60.3265625 59.2842188,60.0832812 58.8426563,59.6417187 L48.9632813,49.7610938 C48.353125,49.1507812 47.3640625,49.1509375 46.75375,49.7609375 C46.4485938,50.0659375 46.2960937,50.4657813 46.2960937,50.865625 C46.2960937,51.2654688 46.4485938,51.6653125 46.75375,51.9703125 L56.6329687,61.8507812 C57.5440625,62.7621875 57.54375,64.2448438 56.6325,65.1557813 C56.1910938,65.5970313 55.604375,65.8401562 54.9801563,65.8401562 C54.98,65.8401562 54.9798438,65.8401562 54.9798438,65.8401562 C54.3554688,65.84 53.7689063,65.5967188 53.3273437,65.1551562 L43.4478125,55.2745312 C42.8376562,54.664375 41.8485937,54.6645312 41.2382812,55.274375 C40.628125,55.8845312 40.6279687,56.8735938 41.2382812,57.4839063 L51.1176562,67.364375 C52.02875,68.2757813 52.0285937,69.7585938 51.1171875,70.6695313 C50.6757812,71.1107813 50.0892187,71.35375 49.465,71.35375 C49.4648438,71.35375 49.4646875,71.35375 49.4646875,71.35375 C48.8403125,71.35375 48.2535937,71.1103125 47.8121875,70.6689063 L44.6715625,67.5271875 C44.5970312,67.4525 44.5165625,67.3873438 44.4320312,67.3309375 C43.4053125,66.3235938 42.0504687,65.7685938 40.6098437,65.7682813 C40.6095312,65.7682813 40.609375,65.7682813 40.6090625,65.7682813 C40.5903125,65.7682813 40.571875,65.769375 40.5532812,65.7696875 C40.5675,64.353125 40.0364062,62.9320313 38.958125,61.8532813 L38.958125,61.853125 C37.9267187,60.8214063 36.5551562,60.253125 35.0964062,60.2529688 C35.0960937,60.2529688 35.0957812,60.2529688 35.0954687,60.2529688 C35.076875,60.2529688 35.0584375,60.2542188 35.0398437,60.254375 C35.0540625,58.8378125 34.5229687,57.4167188 33.4446875,56.3379688 C32.4132812,55.30625 31.041875,54.7378125 29.5829687,54.7375 C29.5825,54.7375 29.5823437,54.7375 29.581875,54.7375 C29.5632812,54.7375 29.5448437,54.73875 29.52625,54.7389063 C29.5404687,53.3223438 29.009375,51.90125 27.9310937,50.8225 L27.9310937,50.8223438 C25.801875,48.6926563 22.336875,48.6917188 20.2070312,50.8210938 L16.8976562,54.1292188 C16.2571875,54.7695313 15.8107812,55.5309375 15.5553125,56.3401563 L11.5651563,56.3401563 L11.5651563,38.8248437 C11.5651563,37.9620312 10.865625,37.2625 10.0028125,37.2625 C9.14,37.2625 8.44046875,37.9621875 8.44046875,38.8248437 L8.44046875,56.3398438 L3.12828125,56.3398438 L3.12828125,28.4973437 L32.4251563,28.4995312 C33.6417188,28.4996875 34.785625,28.9735937 35.6457813,29.83375 L39.4026563,33.5914062 L36.2570313,36.7753125 C34.0660938,38.9928125 34.0871875,42.5801563 36.3039063,44.7720313 C37.3923438,45.848125 38.8298438,46.4064063 40.2815625,46.4064063 C41.2790625,46.4064063 42.2834375,46.1426563 43.1857813,45.6023437 L48.3325,42.5203125 L62.1482813,56.3373437 C62.5270313,56.7160937 62.7584375,57.2023437 62.8167188,57.7270312 C62.8103125,57.7845312 62.80625,57.8429687 62.80625,57.9021875 C62.80625,57.9814062 62.8140625,58.0585937 62.8254688,58.1346875 C62.790625,58.7045313 62.555,59.2354687 62.1478125,59.6425 Z M68.4351563,28.90375 L68.4351563,56.3398438 L65.70375,56.3398438 C65.4432813,55.514375 64.9875,54.7578125 64.358125,54.128125 L51.0964063,40.8653125 L53.1153125,39.6564063 L63.1953125,39.6564063 C64.0582812,39.6564063 64.7576562,38.9567188 64.7576562,38.0940625 C64.7576562,37.23125 64.058125,36.5317188 63.1953125,36.5317188 L52.6832813,36.5317188 C52.4004688,36.5317188 52.123125,36.6084375 51.8804688,36.75375 L41.5803125,42.921875 C40.5889062,43.5157813 39.3223438,43.3626563 38.5007813,42.5501563 C37.5089062,41.5695312 37.499375,39.9640625 38.4798438,38.971875 L46.2634375,31.0935937 C47.8934375,29.4435937 50.158125,28.4975 52.4773438,28.4975 C52.4779688,28.4975 52.4790625,28.4975 52.4796875,28.4975 L68.489375,28.5014062 C68.4551563,28.63 68.4351563,28.764375 68.4351563,28.90375 Z" id="Shape"></path>
                            <path d="M79.5389062,41.3135937 C79.2482812,41.0229687 78.8451563,40.8557812 78.434375,40.8557812 C78.0234375,40.8557812 77.6203125,41.0228125 77.3298437,41.3135937 C77.0392187,41.6042187 76.8720312,42.0073437 76.8720312,42.418125 C76.8720312,42.830625 77.0392187,43.2321875 77.3298437,43.5225 C77.6204688,43.8146875 78.0235937,43.9804687 78.434375,43.9804687 C78.8453125,43.9804687 79.2484375,43.8146875 79.5389062,43.5225 C79.8295313,43.2320312 79.9967187,42.8303125 79.9967187,42.418125 C79.9967187,42.0073437 79.8295313,41.6042187 79.5389062,41.3135937 Z" id="Path"></path>
                            <path d="M11.1073437,31.86125 C10.8167187,31.570625 10.4135937,31.4034375 10.0028125,31.4034375 C9.591875,31.4034375 9.18875,31.5704687 8.89828125,31.86125 C8.60765625,32.151875 8.44046875,32.555 8.44046875,32.9657812 C8.44046875,33.3765625 8.60765625,33.7798437 8.89828125,34.0701562 C9.18890625,34.3607813 9.59203125,34.528125 10.0028125,34.528125 C10.41375,34.528125 10.816875,34.3609375 11.1073437,34.0701562 C11.3979687,33.7796875 11.5651562,33.3765625 11.5651562,32.9657812 C11.5651562,32.555 11.3979687,32.151875 11.1073437,31.86125 Z" id="Path"></path>
                            <path d="M51.2492187,0 L28.7510938,0 C26.1665625,0 24.0640625,2.10265625 24.0640625,4.68703125 L24.0640625,16.2485937 C24.0640625,18.833125 26.1667187,20.935625 28.7510938,20.935625 L34.1971875,20.935625 L38.8953125,25.63375 C39.2004687,25.93875 39.6003125,26.0914062 40,26.0914062 C40.3996875,26.0914062 40.7998438,25.93875 41.1046875,25.63375 L45.8028125,20.935625 L51.2489062,20.935625 C53.8334375,20.935625 55.9359375,18.8329687 55.9359375,16.2485937 L55.9359375,4.68703125 C55.9359375,2.10265625 53.8335937,0 51.2492187,0 Z M52.8115625,16.2485937 C52.8115625,17.11 52.110625,17.8109375 51.2492187,17.8109375 L45.1559375,17.8109375 C44.7415625,17.8109375 44.3440625,17.975625 44.05125,18.2685937 L40.0001562,22.3196875 L35.9490625,18.2685938 C35.6560937,17.975625 35.2585937,17.8109375 34.844375,17.8109375 L28.7510937,17.8109375 C27.8895312,17.8109375 27.18875,17.11 27.18875,16.2485937 L27.18875,4.68703125 C27.18875,3.82546875 27.8896875,3.1246875 28.7510937,3.1246875 L51.2492187,3.1246875 C52.110625,3.1246875 52.8115625,3.825625 52.8115625,4.68703125 L52.8115625,16.2485937 Z" id="Shape"></path>
                            <path d="M33.7615625,9.35078125 C33.4709375,9.05859375 33.0678125,8.89296875 32.6570313,8.89296875 C32.2445313,8.89296875 31.8429688,9.05859375 31.5525,9.35078125 C31.261875,9.64140625 31.0946875,10.043125 31.0946875,10.4553125 C31.0946875,10.86625 31.261875,11.269375 31.5525,11.5598438 C31.843125,11.8504688 32.24625,12.0176563 32.6570313,12.0176563 C33.0678125,12.0176563 33.4710938,11.8504688 33.7615625,11.5598438 C34.0521875,11.2692188 34.219375,10.8660938 34.219375,10.4553125 C34.219375,10.0428125 34.0521875,9.64140625 33.7615625,9.35078125 Z" id="Path"></path>
                            <path d="M41.1046875,9.35078125 C40.8140625,9.05859375 40.4109375,8.89296875 40.0001562,8.89296875 C39.589375,8.89296875 39.1860937,9.05859375 38.895625,9.35078125 C38.605,9.64140625 38.4378125,10.043125 38.4378125,10.4553125 C38.4378125,10.86625 38.605,11.269375 38.895625,11.5598438 C39.18625,11.8504688 39.589375,12.0176563 40.0001562,12.0176563 C40.4109375,12.0176563 40.8142187,11.8504688 41.1046875,11.5598438 C41.3953125,11.2692188 41.5625,10.8660938 41.5625,10.4553125 C41.5625,10.0428125 41.3953125,9.64140625 41.1046875,9.35078125 Z" id="Path"></path>
                            <path d="M48.4478125,9.35078125 C48.1571875,9.05859375 47.7540625,8.89296875 47.3432812,8.89296875 C46.9323437,8.89296875 46.5292187,9.05859375 46.23875,9.35078125 C45.948125,9.64140625 45.7809375,10.043125 45.7809375,10.4553125 C45.7809375,10.86625 45.948125,11.269375 46.23875,11.5598438 C46.529375,11.8503125 46.9325,12.0176563 47.3432812,12.0176563 C47.7542187,12.0176563 48.1573437,11.8504688 48.4478125,11.5598438 C48.7384375,11.2692188 48.905625,10.8660938 48.905625,10.4553125 C48.905625,10.0428125 48.7384375,9.64140625 48.4478125,9.35078125 Z" id="Path"></path>
                        </g>
                    </g>
                </g>
            </g>
        </g>
    </g>
</svg>