<?xml version="1.0" encoding="UTF-8"?>
<svg width="80px" height="80px" viewBox="0 0 80 80" version="1.1" xmlns="http://www.w3.org/2000/svg" xmlns:xlink="http://www.w3.org/1999/xlink">
    <!-- Generator: Sketch 59.1 (86144) - https://sketch.com -->
    <title>hired</title>
    <desc>Created with Sketch.</desc>
    <g id="----◉-SKIPPED-|-LANDING-PAGE" stroke="none" stroke-width="1" fill="none" fill-rule="evenodd">
        <g id="LANDING-PAGE" transform="translate(-80.000000, -707.000000)" fill="#3C3F40" fill-rule="nonzero">
            <g id="Section---How-it-works" transform="translate(80.000000, 496.000000)">
                <g id="Skipped-Process" transform="translate(0.000000, 83.000000)">
                    <g id="Step---2" transform="translate(0.000000, 128.000000)">
                        <g id="hired">
                            <path d="M71.4601563,63.755625 C72.3176562,62.570625 72.825,61.1164062 72.825,59.5453125 L72.825,50.15625 C72.825,49.2932812 72.1253125,48.59375 71.2625,48.59375 L64.279375,48.59375 C61.05125,48.59375 58.425,51.22 58.425,54.448125 L58.425,59.5453125 C58.425,61.1154688 58.9317188,62.5685938 59.788125,63.7532813 C58.72,63.9265625 57.6923437,64.26875 56.7339062,64.7696875 C54.5629687,61.5303125 51.00625,59.29625 46.9190625,58.919375 C46.903125,58.9148438 46.886875,58.9115625 46.8707812,58.9076563 C48.333125,57.2746875 49.2245312,55.1203125 49.2245312,52.7609375 L49.2245312,40 C49.2245312,39.1370312 48.5248437,38.4375 47.6620312,38.4375 L38.1710937,38.4375 C34.093125,38.4375 30.7754687,41.7551562 30.7754687,45.833125 L30.7754687,52.7607813 C30.7754687,55.1201563 31.666875,57.2745312 33.1292187,58.9075 C33.113125,58.9114062 33.096875,58.9148438 33.0809375,58.9192187 C28.9932812,59.2960937 25.4364063,61.5304687 23.265625,64.7703125 C22.306875,64.2695312 21.2790625,63.9270312 20.2114062,63.75375 C21.0679687,62.5690625 21.575,61.115625 21.575,59.5453125 L21.575,50.15625 C21.575,49.2932812 20.8753125,48.59375 20.0125,48.59375 L13.029375,48.59375 C9.80125,48.59375 7.175,51.22 7.175,54.448125 L7.175,59.5453125 C7.175,61.1165625 7.68234375,62.570625 8.53984375,63.755625 C3.7034375,64.5460938 0,68.7521875 0,73.8085938 L0,78.4375 C0,79.3004688 0.6996875,80 1.5625,80 L78.4375,80 C79.3003125,80 80,79.3004688 80,78.4375 L80,73.8085938 C80,68.7521875 76.2965625,64.5460938 71.4601563,63.755625 Z M10.3,54.448125 C10.3,52.943125 11.524375,51.71875 13.029375,51.71875 L18.45,51.71875 L18.45,53.6217187 C18.45,54.5548437 17.6909375,55.3139062 16.7579688,55.3139062 L10.3,55.3139062 L10.3,54.448125 Z M10.3,58.43875 L16.7579688,58.43875 C17.3532813,58.43875 17.9232813,58.3295313 18.45,58.1310938 L18.45,59.5453125 C18.45,61.7921875 16.6220313,63.6203125 14.375,63.6203125 C12.1279688,63.6203125 10.3,61.7921875 10.3,59.5453125 L10.3,58.43875 L10.3,58.43875 Z M15.3823438,66.7453125 L14.375,67.7526563 L13.3676562,66.7453125 L15.3823438,66.7453125 Z M21.02375,72.14625 L21.02375,76.875 L3.125,76.875 L3.125,73.8085938 C3.125,70.3040625 5.69109375,67.38875 9.04265625,66.8396875 L13.2701563,71.0671875 C13.5632813,71.3601563 13.960625,71.5248438 14.375,71.5248438 C14.789375,71.5248438 15.1867187,71.3601563 15.4798438,71.0671875 L19.7085937,66.8382813 C20.4554688,66.9598438 21.17375,67.200625 21.843125,67.5528125 C21.31375,68.985 21.02375,70.5323437 21.02375,72.14625 Z M40.0001563,58.8604688 C36.636875,58.8604688 33.900625,56.1242187 33.900625,52.7609375 L33.900625,50.6957813 L43.23875,50.6957813 C44.2742188,50.6957813 45.2492187,50.43125 46.0996875,49.9665625 L46.0996875,52.7609375 C46.0996875,56.1242187 43.3634375,58.8604688 40.0001563,58.8604688 Z M42.72375,61.9853125 L40,64.7090625 L37.27625,61.9853125 L42.72375,61.9853125 L42.72375,61.9853125 Z M33.9003125,45.833125 L33.9004688,45.833125 C33.9004688,43.4782812 35.81625,41.5625 38.1710937,41.5625 L46.0995312,41.5625 L46.0995312,44.71 C46.0995312,46.2875 44.8160938,47.5709375 43.2385937,47.5709375 L33.9003125,47.5709375 L33.9003125,45.833125 Z M55.8510938,76.875 L52.8125,76.875 L27.1875,76.875 L24.1489062,76.875 L24.1489062,73.75 L34.3229688,73.75 C35.1857812,73.75 35.8854688,73.0504688 35.8854688,72.1875 C35.8854688,71.3245313 35.1857812,70.625 34.3229688,70.625 L24.263125,70.625 C24.9328125,66.1842187 28.4875,62.67875 32.9504687,62.0789063 L38.8951562,68.0235938 C39.2003125,68.32875 39.6001562,68.48125 40,68.48125 C40.3998437,68.48125 40.7996875,68.32875 41.1048437,68.0235938 L47.0495312,62.0789063 C52.0114062,62.7457813 55.8510938,67.0046875 55.8510938,72.14625 L55.8510938,76.875 L55.8510938,76.875 Z M61.55,54.448125 C61.55,52.943125 62.774375,51.71875 64.279375,51.71875 L69.7,51.71875 L69.7,53.6217187 C69.7,54.5548437 68.9409375,55.3139062 68.0079687,55.3139062 L61.55,55.3139062 L61.55,54.448125 Z M61.55,58.43875 L68.0079687,58.43875 C68.6032812,58.43875 69.1732813,58.3295313 69.7,58.1310938 L69.7,59.5453125 C69.7,61.7921875 67.8720312,63.6203125 65.625,63.6203125 C63.3779688,63.6203125 61.55,61.7921875 61.55,59.5453125 L61.55,58.43875 L61.55,58.43875 Z M66.6323438,66.7453125 L65.625,67.7526563 L64.6176562,66.7453125 L66.6323438,66.7453125 Z M58.9760937,76.875 L58.9760937,72.14625 C58.9760937,70.5321875 58.6860937,68.9848437 58.1565625,67.5525 C58.825625,67.2 59.54375,66.959375 60.2907812,66.8379688 L64.52,71.0671875 C64.813125,71.3601563 65.2104687,71.5248438 65.6248437,71.5248438 C66.0392188,71.5248438 66.4365625,71.3601563 66.7296875,71.0671875 L70.9571875,66.8396875 C74.30875,67.3889063 76.8748437,70.3040625 76.8748437,73.8085938 L76.8748437,76.875 L58.9760937,76.875 Z" id="Shape"></path>
                            <path d="M47.700625,10.2090625 C47.0903125,9.59890625 46.10125,9.59890625 45.4907812,10.2090625 L37.8235938,17.8764063 L34.5090625,14.561875 C33.89875,13.9515625 32.9096875,13.9515625 32.299375,14.5617188 C31.6892188,15.171875 31.6892188,16.16125 32.299375,16.7715625 L36.71875,21.1909375 C37.011875,21.4839063 37.4092188,21.6485938 37.8235938,21.6485938 C38.2379688,21.6485938 38.6353125,21.4839063 38.9284375,21.1909375 L47.700625,12.41875 C48.3107813,11.8085938 48.3107813,10.8192188 47.700625,10.2090625 Z" id="Path"></path>
                            <path d="M46.38875,1.355 C45.6007812,1.00359375 44.676875,1.3575 44.3253125,2.145625 C43.97375,2.93375 44.3278125,3.85765625 45.1159375,4.2090625 C49.6470312,6.22984375 52.5748437,10.7403125 52.5748437,15.7 C52.5748437,22.63375 46.93375,28.2748438 40,28.2748438 C33.06625,28.2748438 27.4251563,22.63375 27.4251563,15.7 C27.4251563,10.7659375 30.331875,6.26484375 34.8303125,4.233125 C35.6167187,3.87796875 35.9664062,2.95234375 35.6110937,2.1659375 C35.2559375,1.379375 34.3298437,1.02984375 33.5440625,1.385 C27.92875,3.92125 24.3003125,9.54015625 24.3003125,15.6998438 C24.3003125,24.356875 31.343125,31.3998438 40,31.3998438 C48.656875,31.3998438 55.6998437,24.356875 55.6998437,15.7 C55.6998437,9.50828125 52.045,3.8775 46.38875,1.355 Z" id="Path"></path>
                            <path d="M40.0559375,0 L40,0 C39.1371875,0 38.4375,0.69953125 38.4375,1.5625 C38.4375,2.42546875 39.1371875,3.125 40,3.125 L40.04125,3.125 C40.04375,3.125 40.0460938,3.125 40.04875,3.125 C40.9082813,3.125 41.6070313,2.4303125 41.6111114,1.56984375 C41.6151562,0.706875 40.9189062,0.0040625 40.0559375,0 Z" id="Path"></path>
                            <path d="M41.1045313,71.0828125 C40.8140625,70.7921875 40.4109375,70.625 40,70.625 C39.5890625,70.625 39.1859375,70.7921875 38.8953125,71.0828125 C38.6046875,71.3734375 38.4375,71.7765625 38.4375,72.1875 C38.4375,72.5984375 38.6045313,73.0015625 38.8953125,73.2921875 C39.1860937,73.5828125 39.5890625,73.75 40,73.75 C40.4109375,73.75 40.8140625,73.5828125 41.1045313,73.2921875 C41.3951563,73.0015625 41.5625,72.5984375 41.5625,72.1875 C41.5625,71.7765625 41.3953125,71.3734375 41.1045313,71.0828125 Z" id="Path"></path>
                        </g>
                    </g>
                </g>
            </g>
        </g>
    </g>
</svg>