<?xml version="1.0" encoding="UTF-8"?>
<svg width="20px" height="20px" viewBox="0 0 20 20" version="1.1" xmlns="http://www.w3.org/2000/svg" xmlns:xlink="http://www.w3.org/1999/xlink">
    <!-- Generator: Sketch 59.1 (86144) - https://sketch.com -->
    <title>icon - star</title>
    <desc>Created with Sketch.</desc>
    <g id="----◉-SKIPPED-|-SIGN-IN-&amp;-LOGIN-PAGE-|-CANDIDATE-✅" stroke="none" stroke-width="1" fill="none" fill-rule="evenodd">
        <g id="Sign-Up-Candidate-Step-2" transform="translate(-640.000000, -494.000000)" fill="#36D26B" fill-rule="nonzero" stroke="#36D26B">
            <g id="cards--recruiters" transform="translate(233.000000, 265.000000)">
                <g id="cards--recruiter" transform="translate(380.000000, 0.000000)">
                    <g id="card---recruiter">
                        <g id="stars/4-stars" transform="translate(28.000000, 230.000000)">
                            <g id="icon---star">
                                <path d="M17.2435738,8.131125 C17.590515,7.771875 17.7129856,7.244625 17.5633385,6.7545 C17.4133385,6.264375 17.0226326,5.9145 16.5426326,5.84025 L12.2748679,5.181375 C12.0931032,5.15325 11.9360444,5.032125 11.8548679,4.857 L9.94686793,0.7485 C9.73263264,0.286875 9.29780911,0 8.81322087,0 C8.32898558,0 7.89416205,0.286875 7.67992676,0.7485 L5.77157382,4.857375 C5.69039735,5.0325 5.53298558,5.153625 5.35122087,5.18175 L1.08345617,5.840625 C0.60380911,5.9145 0.212750287,6.26475 0.0627502866,6.754875 C-0.0868967722,7.245 0.035573816,7.77225 0.382514992,8.1315 L3.47039735,11.3295 C3.6020444,11.466 3.66239735,11.6625 3.63133852,11.8545 L2.90286793,16.37025 C2.8382797,16.76775 2.93639735,17.154375 3.17851499,17.45925 C3.55475029,17.934375 4.21157382,18.079125 4.73675029,17.785875 L8.55345617,15.653625 C8.71298558,15.56475 8.91380911,15.5655 9.07298558,15.653625 L12.8900444,17.785875 C13.0756915,17.88975 13.2736915,17.94225 13.4780444,17.94225 C13.8511032,17.94225 14.2047503,17.766 14.4479268,17.45925 C14.6903973,17.154375 14.7881621,16.767 14.7235738,16.37025 L13.9947503,11.8545 C13.9636915,11.662125 14.0240444,11.466 14.1556915,11.3295 L17.2435738,8.131125 Z" id="Path"></path>
                            </g>
                        </g>
                    </g>
                </g>
            </g>
        </g>
    </g>
</svg>