<?xml version="1.0" encoding="UTF-8"?>
<svg width="269px" height="371px" viewBox="0 0 269 371" version="1.1" xmlns="http://www.w3.org/2000/svg" xmlns:xlink="http://www.w3.org/1999/xlink">
    <!-- Generator: Sketch 59.1 (86144) - https://sketch.com -->
    <title>img - logo w words</title>
    <desc>Created with Sketch.</desc>
    <defs>
        <path d="M154.372525,102.405057 C183.475773,102.405057 207.068617,79.4809045 207.068617,51.2025287 C207.068617,22.9241529 183.475773,0 154.372525,0 C125.269277,0 101.676433,22.9241529 101.676433,51.2025287 C101.676433,79.4809045 125.269277,102.405057 154.372525,102.405057 Z M177.256848,112.328624 L173.428283,126.873133 C172.170037,131.653139 174.021626,136.71077 178.06944,139.550497 L187.881571,146.434155 L187.881571,222.458132 C187.881571,229.917613 190.390375,237.160591 195.004964,243.02354 L200.133349,249.539714 C201.390326,251.136734 201.737906,253.267271 201.053617,255.180624 C189.892134,286.38946 169.738543,311.611622 140.592845,330.847109 C117.255717,346.249074 93.9634583,359.20042 70.7160688,369.701146 L68.9728626,370.484696 C65.9916665,371.815703 62.495308,370.479364 61.1635275,367.499901 C60.3302617,365.635717 60.5190347,363.473686 61.6627808,361.781919 C70.4941137,348.719094 78.6751616,336.463804 86.2059242,325.016051 L0,325.016051 L0,242.304274 L46.5306937,242.304274 C51.303278,218.231845 61.9218955,195.643289 77.5145121,176.557277 C95.263266,154.832064 118.002388,137.715338 143.795632,126.664597 L177.256848,112.328624 Z M104.532273,204.651934 C99.2898571,211.963759 89.3751493,224.514539 74.7881495,242.304274 L118.228411,242.304274 L118.228411,274.853202 C123.327417,266.53482 127.842353,258.941749 131.773217,252.073987 C143.238924,232.041819 137.211309,198.511613 130.051252,191.095014 C122.181908,182.943716 109.366595,197.909295 104.532273,204.651934 Z M193.277061,107.717662 C211.53975,102.367601 225.219147,100.22587 234.315251,101.292468 L234.315251,101.292468 L234.844056,101.358088 C252.258314,103.638305 266.052874,117.253688 268.52523,134.685639 L268.52523,134.685639 L268.622158,135.40622 C269.322856,140.917194 269.048985,146.117895 267.800546,151.008323 C265.129268,161.472345 256.049695,178.140496 240.561828,201.012777 L240.561828,201.012777 L202.407703,141.034452 L207.402932,122.940324 C207.497439,122.597994 207.403295,122.231222 207.155595,121.97673 L207.155595,121.97673 Z" id="path-1"></path>
        <linearGradient x1="64.1166521%" y1="13.7289687%" x2="13.2398754%" y2="114.141101%" id="linearGradient-3">
            <stop stop-color="#77FFB6" offset="0%"></stop>
            <stop stop-color="#36D26B" offset="100%"></stop>
        </linearGradient>
    </defs>
    <g id="----◉-SKIPPED-|-LANDING-PAGE" stroke="none" stroke-width="1" fill="none" fill-rule="evenodd">
        <g id="LANDING-PAGE" transform="translate(-704.000000, -316.000000)">
            <g id="Overlay---Logo" transform="translate(581.000000, 248.000000)">
                <g id="img---logo-w-words" transform="translate(123.000000, 68.000000)">
                    <g id="img---logo-green-copy-2">
                        <mask id="mask-2" fill="white">
                            <use xlink:href="#path-1"></use>
                        </mask>
                        <use id="Combined-Shape" fill="#D0021B" xlink:href="#path-1"></use>
                        <rect id="color" fill="url(#linearGradient-3)" mask="url(#mask-2)" x="-106.126027" y="-47.8472222" width="473.145205" height="472.583333"></rect>
                    </g>
                </g>
            </g>
        </g>
    </g>
</svg>