<?xml version="1.0" encoding="UTF-8"?>
<svg width="80px" height="80px" viewBox="0 0 80 80" version="1.1" xmlns="http://www.w3.org/2000/svg" xmlns:xlink="http://www.w3.org/1999/xlink">
    <!-- Generator: Sketch 59.1 (86144) - https://sketch.com -->
    <title>interview</title>
    <desc>Created with Sketch.</desc>
    <g id="----◉-SKIPPED-|-LANDING-PAGE" stroke="none" stroke-width="1" fill="none" fill-rule="evenodd">
        <g id="LANDING-PAGE" transform="translate(-80.000000, -963.000000)" fill="#3C3F40" fill-rule="nonzero">
            <g id="Section---How-it-works" transform="translate(80.000000, 496.000000)">
                <g id="Skipped-Process" transform="translate(0.000000, 83.000000)">
                    <g id="Step---4" transform="translate(0.000000, 384.000000)">
                        <g id="interview">
                            <path d="M9.85,77.2467742 C9.55,76.9466129 9.13387097,76.7741935 8.70967742,76.7741935 C8.28387097,76.7741935 7.86935484,76.9466129 7.56935484,77.2467742 C7.26774194,77.5467742 7.09677419,77.9629032 7.09677419,78.3870968 C7.09677419,78.8112903 7.26774194,79.2274194 7.56935484,79.5272581 C7.86935484,79.8272581 8.28403226,80 8.70967742,80 C9.13387097,80 9.55,79.8274194 9.85,79.5272581 C10.1498387,79.2274194 10.3225806,78.8112903 10.3225806,78.3870968 C10.3225806,77.9629032 10.15,77.5467742 9.85,77.2467742 Z" id="Path"></path>
                            <path d="M58.2369355,66.2790323 C57.9370968,65.978871 57.5209677,65.8064516 57.0967742,65.8064516 C56.6725806,65.8064516 56.2564516,65.978871 55.9564516,66.2790323 C55.6564516,66.5791935 55.483871,66.9951613 55.483871,67.4193548 C55.483871,67.8451613 55.6562903,68.2596774 55.9564516,68.5595161 C56.2564516,68.8595161 56.6725806,69.0322581 57.0967742,69.0322581 C57.5209677,69.0322581 57.9370968,68.8596774 58.2369355,68.5595161 C58.5369355,68.2596774 58.7096774,67.845 58.7096774,67.4193548 C58.7096774,66.9951613 58.5370968,66.5790323 58.2369355,66.2790323 Z" id="Path"></path>
                            <path d="M74.9604688,25.3270518 C76.1428125,24.1411553 76.875,22.5069587 76.875,20.7051763 L76.875,19.4568642 C76.875,15.8431568 73.9310938,12.9032258 70.3125,12.9032258 C66.6939062,12.9032258 63.75,15.8431568 63.75,19.4568642 L63.75,20.7051763 C63.75,22.5072708 64.4823437,24.1414674 65.665,25.3275199 C63.1004687,26.7340555 61.2379688,29.2650083 60.7509375,32.252063 L53.59375,32.252063 C51.0090625,32.252063 48.90625,34.352036 48.90625,36.9332333 C48.90625,37.4803061 49.0015625,38.0052213 49.175,38.4936234 L30.825,38.4936234 C30.9984375,38.0052213 31.09375,37.4803061 31.09375,36.9332333 C31.09375,34.352036 28.9909375,32.252063 26.40625,32.252063 L19.2490625,32.252063 C18.7620312,29.2650083 16.8995312,26.7338995 14.335,25.3275199 C15.5176562,24.1414674 16.25,22.5072708 16.25,20.7051763 L16.25,19.4568642 C16.25,15.8431568 13.3060937,12.9032258 9.6875,12.9032258 C6.06890625,12.9032258 3.125,15.8431568 3.125,19.4568642 L3.125,20.7051763 C3.125,22.5069587 3.8571875,24.1411553 5.03953125,25.3270518 C2.03890625,26.9727952 0,30.1589557 0,33.8124531 L0,49.4163541 L0,51.3148807 C0,56.2048312 3.98359375,60.1830458 8.88015625,60.1830458 L21.25,60.1830458 L21.25,75.0847712 C21.25,75.7179775 21.371875,76.3229407 21.5910937,76.8792198 L15.4167188,76.8792198 C14.5539062,76.8792198 13.8542188,77.5779625 13.8542188,78.4396099 C13.8542188,79.3012573 14.5539062,80 15.4167188,80 L71.3020312,80 C72.1648437,80 72.8645312,79.3012573 72.8645312,78.4396099 C72.8645312,77.5779625 72.1648437,76.8792198 71.3020312,76.8792198 L58.4089062,76.8792198 C58.628125,76.3229407 58.75,75.7179775 58.75,75.0847712 L58.75,73.2903226 C58.75,72.4286752 58.0503125,71.7299325 57.1875,71.7299325 C56.3246875,71.7299325 55.625,72.4286752 55.625,73.2903226 L55.625,75.0847712 C55.625,76.0742146 54.8189062,76.8792198 53.828125,76.8792198 C52.8373437,76.8792198 52.03125,76.0742146 52.03125,75.0847712 L52.03125,55.3848462 C52.03125,52.9542266 54.0114062,50.9767442 56.4453125,50.9767442 L62.1875,50.9767442 L63.4375,50.9767442 L76.875,50.9767442 L76.875,51.3148807 C76.875,54.484033 74.2932812,57.0622656 71.1198438,57.0622656 L57.1875,57.0622656 C56.3246875,57.0622656 55.625,57.7610083 55.625,58.6226557 L55.625,61.1192798 C55.625,61.9809272 56.3246875,62.6796699 57.1875,62.6796699 C58.0503125,62.6796699 58.75,61.9809272 58.75,61.1192798 L58.75,60.1830458 L71.1198438,60.1830458 C76.0164063,60.1830458 80,56.2048312 80,51.3148807 L80,49.4163541 L80,33.8124531 C80,30.1589557 77.9610938,26.9727952 74.9604688,25.3270518 Z M66.875,19.4568642 C66.875,17.563955 68.4170313,16.024006 70.3125,16.024006 C72.2079688,16.024006 73.75,17.563955 73.75,19.4568642 L73.75,20.7051763 C73.75,22.5980855 72.2079688,24.1380345 70.3125,24.1380345 C68.4170313,24.1380345 66.875,22.5980855 66.875,20.7051763 L66.875,19.4568642 Z M6.25,19.4568642 C6.25,17.563955 7.79203125,16.024006 9.6875,16.024006 C11.5829688,16.024006 13.125,17.563955 13.125,19.4568642 L13.125,20.7051763 C13.125,22.5980855 11.5829688,24.1380345 9.6875,24.1380345 C7.79203125,24.1380345 6.25,22.5980855 6.25,20.7051763 L6.25,19.4568642 Z M3.125,33.8124531 C3.125,30.1987457 6.06890625,27.2588147 9.6875,27.2588147 C13.3060938,27.2588147 16.25,30.1987457 16.25,33.8124531 C16.25,34.6741005 16.9496875,35.3728432 17.8125,35.3728432 L26.40625,35.3728432 C27.2678125,35.3728432 27.96875,36.0728342 27.96875,36.9332333 C27.96875,37.7936324 27.2678125,38.4936234 26.40625,38.4936234 L17.3070313,38.4936234 C14.8226563,38.4936234 12.550625,37.1349917 11.3773438,34.947949 C10.97,34.1883511 10.0228125,33.9023316 9.2621875,34.3094374 C8.5015625,34.7162311 8.2153125,35.6619835 8.6228125,36.4217374 C10.1870313,39.3376384 13.0851563,41.248024 16.3373438,41.5669677 C16.2807813,41.7283121 16.25,41.9019835 16.25,42.0825206 L16.25,47.855964 L3.125,47.855964 L3.125,33.8124531 Z M22.4034375,47.855964 L19.375,47.855964 L19.375,42.0825206 C19.375,41.9194599 19.35,41.7621725 19.3034375,41.6144036 L22.4034375,41.6144036 C21.8698438,42.5331613 21.5625,43.5987517 21.5625,44.7351838 C21.5625,45.8716159 21.8696875,46.9372063 22.4034375,47.855964 Z M27.96875,75.0847712 C27.96875,76.0742146 27.1626563,76.8792198 26.171875,76.8792198 C25.1810938,76.8792198 24.375,76.0742146 24.375,75.0847712 L24.375,58.6226557 C24.375,57.7610083 23.6753125,57.0622656 22.8125,57.0622656 L8.88015625,57.0622656 C5.70671875,57.0622656 3.125,54.484033 3.125,51.3148807 L3.125,50.9767442 L16.5625,50.9767442 L17.8125,50.9767442 L23.5546875,50.9767442 C25.9885937,50.9767442 27.96875,52.9542266 27.96875,55.3848462 L27.96875,75.0847712 Z M35.3125,76.8792198 L30.7526563,76.8792198 C30.9720313,76.3229407 31.09375,75.7179775 31.09375,75.0847712 L31.09375,55.3848462 C31.09375,53.7395709 30.5610938,52.2169422 29.6607812,50.9767442 L35.3125,50.9767442 L35.3125,76.8792198 Z M41.5625,76.8792198 L38.4375,76.8792198 L38.4375,50.9767442 L41.5625,50.9767442 L41.5625,76.8792198 Z M49.2473438,76.8792198 L44.6875,76.8792198 L44.6875,50.9767442 L50.3392188,50.9767442 C49.4390625,52.2169422 48.90625,53.7395709 48.90625,55.3848462 L48.90625,75.0847712 C48.90625,75.7179775 49.028125,76.3229407 49.2473438,76.8792198 Z M52.1875,47.855964 L27.8125,47.855964 C26.089375,47.855964 24.6875,46.455982 24.6875,44.7351838 C24.6875,43.0143856 26.089375,41.6144036 27.8125,41.6144036 L52.1875,41.6144036 C53.910625,41.6144036 55.3125,43.0143856 55.3125,44.7351838 C55.3125,46.455982 53.910625,47.855964 52.1875,47.855964 Z M60.625,42.0825206 L60.625,47.855964 L57.5965625,47.855964 C58.1301562,46.9372063 58.4375,45.8716159 58.4375,44.7351838 C58.4375,43.5987517 58.1303125,42.5331613 57.5965625,41.6144036 L60.6965625,41.6144036 C60.65,41.7621725 60.625,41.9194599 60.625,42.0825206 Z M76.875,47.855964 L63.75,47.855964 L63.75,42.0825206 C63.75,41.9019835 63.7192187,41.7283121 63.6626562,41.5669677 C66.9148438,41.248024 69.8129687,39.3376384 71.3771875,36.4217374 C71.7846875,35.6619835 71.4984375,34.7162311 70.7378125,34.3094374 C69.976875,33.9024876 69.0301563,34.1886632 68.6226563,34.947949 C67.449375,37.1349917 65.1773438,38.4936234 62.6929688,38.4936234 L53.59375,38.4936234 C52.7321875,38.4936234 52.03125,37.7936324 52.03125,36.9332333 C52.03125,36.0728342 52.7321875,35.3728432 53.59375,35.3728432 L62.1875,35.3728432 C63.0503125,35.3728432 63.75,34.6741005 63.75,33.8124531 C63.75,30.1987457 66.6939062,27.2588147 70.3125,27.2588147 C73.9310938,27.2588147 76.875,30.1987457 76.875,33.8124531 L76.875,47.855964 Z" id="Shape"></path>
                            <path d="M50.8349146,0 L28.5199241,0 C25.9564896,0 23.8709677,2.09109272 23.8709677,4.66137477 L23.8709677,19.8885323 C23.8709677,22.4588144 25.9564896,24.5499071 28.5199241,24.5499071 L33.9215465,24.5499071 L38.5815054,29.2223138 C38.8843074,29.5256139 39.2807084,29.6774194 39.6774194,29.6774194 C40.0741303,29.6774194 40.4705313,29.5256139 40.7731784,29.2223138 L45.4332922,24.5499071 L50.8349146,24.5499071 C53.3983491,24.5499071 55.483871,22.4588144 55.483871,19.8885323 L55.483871,4.66137477 C55.483871,2.09109272 53.3983491,0 50.8349146,0 Z M52.3845667,19.8885323 C52.3845667,20.745293 51.6893928,21.4423239 50.8349146,21.4423239 L44.7912713,21.4423239 C44.3803036,21.4423239 43.9862271,21.6060936 43.6955123,21.8974295 L39.6774194,25.9261003 L35.6593264,21.8972741 C35.3686116,21.6060936 34.9745351,21.4423239 34.5635674,21.4423239 L28.5199241,21.4423239 C27.6654459,21.4423239 26.970272,20.745293 26.970272,19.8885323 L26.970272,4.66137477 C26.970272,3.80461409 27.6654459,3.10758318 28.5199241,3.10758318 L50.8349146,3.10758318 C51.6893928,3.10758318 52.3845667,3.80461409 52.3845667,4.66137477 L52.3845667,19.8885323 Z" id="Shape"></path>
                            <path d="M33.7208065,10.7951613 C33.4209677,10.4935484 33.0048387,10.3225806 32.5806452,10.3225806 C32.1564516,10.3225806 31.7403226,10.4935484 31.4403226,10.7951613 C31.1403226,11.0951613 30.9677419,11.5112903 30.9677419,11.9354839 C30.9677419,12.3596774 31.1401613,12.7758065 31.4403226,13.0758065 C31.7403226,13.3758065 32.1564516,13.5483871 32.5806452,13.5483871 C33.0048387,13.5483871 33.4209677,13.3758065 33.7208065,13.0758065 C34.0208065,12.7758065 34.1935484,12.3596774 34.1935484,11.9354839 C34.1935484,11.5112903 34.0209677,11.0951613 33.7208065,10.7951613 Z" id="Path"></path>
                            <path d="M40.8175806,10.7951613 C40.5177419,10.4953226 40.1016129,10.3225806 39.6774194,10.3225806 C39.2532258,10.3225806 38.8370968,10.4951613 38.5370968,10.7951613 C38.2370968,11.0951613 38.0645161,11.5112903 38.0645161,11.9354839 C38.0645161,12.3596774 38.2369355,12.7758065 38.5370968,13.0758065 C38.8370968,13.3758065 39.2532258,13.5483871 39.6774194,13.5483871 C40.1016129,13.5483871 40.5177419,13.3758065 40.8175806,13.0758065 C41.1175806,12.7758065 41.2903226,12.3596774 41.2903226,11.9354839 C41.2903226,11.5112903 41.1177419,11.0951613 40.8175806,10.7951613 Z" id="Path"></path>
                            <path d="M48.5595161,10.7951613 C48.2596774,10.4935484 47.8435484,10.3225806 47.4193548,10.3225806 C46.9951613,10.3225806 46.5790323,10.4935484 46.2790323,10.7951613 C45.9790323,11.0951613 45.8064516,11.5112903 45.8064516,11.9354839 C45.8064516,12.3596774 45.978871,12.7758065 46.2790323,13.0758065 C46.5790323,13.3758065 46.9951613,13.5483871 47.4193548,13.5483871 C47.8435484,13.5483871 48.2596774,13.3758065 48.5595161,13.0758065 C48.8595161,12.7758065 49.0322581,12.3596774 49.0322581,11.9354839 C49.0322581,11.5112903 48.8596774,11.0951613 48.5595161,10.7951613 Z" id="Path"></path>
                        </g>
                    </g>
                </g>
            </g>
        </g>
    </g>
</svg>