<?xml version="1.0" encoding="UTF-8"?>
<svg width="147px" height="51px" viewBox="0 0 147 51" version="1.1" xmlns="http://www.w3.org/2000/svg" xmlns:xlink="http://www.w3.org/1999/xlink">
    <!-- Generator: Sketch 59.1 (86144) - https://sketch.com -->
    <title>Logo</title>
    <desc>Created with Sketch.</desc>
    <g id="----◉-SKIPPED-|-SIGN-IN-&amp;-LOGIN-PAGE-|-CANDIDATE-✅" stroke="none" stroke-width="1" fill="none" fill-rule="evenodd">
        <g id="Sign-Up-Candidate-Step-2" transform="translate(-32.000000, -16.000000)" fill="#FFFFFF">
            <g id="navbar/logged-out">
                <g id="Logo">
                    <g transform="translate(32.000000, 16.000000)">
                        <g id="icon---skipped" transform="translate(26.000000, 0.000000)">
                            <circle id="Oval" cx="20.5" cy="6.5" r="6.5"></circle>
                            <path d="M13,32 C13.5522847,32 14,32.4477153 14,33 L14.0010804,40.0075263 C15.7595004,36.8311279 16.9966077,34.1619524 17.7124023,32 C19.157732,27.6345944 18.833676,24.2617103 16.7402344,21.8813477 L11.6037835,23.298287 C8.82124445,24.0658771 7.18780561,26.9438255 7.95539576,29.7263646 C8.16554491,30.488162 8.54534169,31.1911166 9.06481991,31.7832473 L9.26611328,32 L13,32 Z M2.35823333,28.1564573 C0.661715157,26.4714477 0.652385617,23.7301778 2.33739522,22.0336596 C2.50263868,21.8672876 2.68112528,21.714615 2.87109375,21.5771484 C5.60037902,19.6021607 8.66988669,18.1464201 11.9261948,17.2826885 L23.3227539,14.2597656 L22.5566406,16.9921875 L24.6333008,18.5893555 L24.6333008,28.2557468 C24.6333008,29.193862 24.9420753,30.1058976 25.5119629,30.8510742 L26.1826673,31.7280776 C26.3082225,31.8923428 26.3197712,32.1169447 26.211679,32.2931924 C23.7662706,36.2805073 21.2958086,39.5161099 18.800293,42 C16.4995314,44.2900433 13.0833762,47.0301268 8.55182726,50.2202503 L8.39579583,49.9986087 C8.29240355,50.0713948 8.14958269,50.0465837 8.07679651,49.9431914 C8.02264619,49.8662712 8.02105762,49.7640563 8.07279148,49.6854906 C9.91734279,46.8842576 11.5159808,44.3222915 12.8687054,41.9995925 L-2.13162821e-14,42 L-2.13162821e-14,33 C-2.13839174e-14,32.4477153 0.44771525,32 1,32 L6.22802734,32 L2.35823333,28.1564573 Z" id="Combined-Shape"></path>
                            <path d="M25,13.8494185 L27,15.7480469 L26.2854464,18.2608643 L30.8325195,25.6929399 C32.7429294,22.7893758 33.8628839,20.6734064 34.1923828,19.3450317 C34.3787772,18.593583 34.3890517,17.7844276 34.2232065,16.9175653 L34.223213,16.9175641 C33.8287213,14.8555818 32.1462692,13.2852867 30.0620117,13.0337603 C30.0620117,13.0337603 30.0620117,13.0337603 30.0620117,13.0337603 C28.9400181,12.898359 27.2526809,13.1702451 25,13.8494185 Z" id="Path-4"></path>
                        </g>
                        <text id="text---logo" font-family="OpenSans-BoldItalic, Open Sans" font-size="24" font-style="italic" font-weight="bold">
                            <tspan x="0" y="31">Sk      pped.io</tspan>
                        </text>
                    </g>
                </g>
            </g>
        </g>
    </g>
</svg>