<?xml version="1.0" encoding="UTF-8"?>
<svg width="16px" height="18px" viewBox="0 0 16 18" version="1.1" xmlns="http://www.w3.org/2000/svg" xmlns:xlink="http://www.w3.org/1999/xlink">
    <!-- Generator: Sketch 59.1 (86144) - https://sketch.com -->
    <title>notifications-bell-button</title>
    <desc>Created with Sketch.</desc>
    <g id="SYMBOLS" stroke="none" stroke-width="1" fill="none" fill-rule="evenodd">
        <g id="navbar/logged-in-|-Dashboard" transform="translate(-829.000000, -33.000000)" fill="#FFFFFF" fill-rule="nonzero">
            <g id="navbar/logged-in">
                <g id="notifications-bell-button" transform="translate(829.000000, 33.000000)">
                    <path d="M8.08602151,18 C9.12688172,18 9.97849462,17.1825688 9.97849462,16.1834862 L6.19354839,16.1834862 C6.19354839,17.1825688 7.04516129,18 8.08602151,18 Z M14.1176471,12.6475985 L14.1176471,7.67889908 C14.1176471,4.87835942 12.1411765,2.61985969 9.41176471,1.98747976 L9.41176471,1.35509984 C9.41176471,0.632379924 8.75294118,0 8,0 C7.24705882,0 6.58823529,0.632379924 6.58823529,1.35509984 L6.58823529,1.98747976 C3.85882353,2.61985969 1.88235294,4.87835942 1.88235294,7.67889908 L1.88235294,12.6475985 L0,14.4543983 L0,15.3577982 L16,15.3577982 L16,14.4543983 L14.1176471,12.6475985 Z M12.2150538,13.5412844 L3.78494624,13.5412844 L3.78494624,7.68640534 C3.78494624,5.43452877 5.65830346,3.63302752 8,3.63302752 C10.3416965,3.63302752 12.2150538,5.43452877 12.2150538,7.68640534 L12.2150538,13.5412844 Z" id="Shape"></path>
                </g>
            </g>
        </g>
    </g>
</svg>