<?xml version="1.0" encoding="UTF-8"?>
<svg width="80px" height="80px" viewBox="0 0 80 80" version="1.1" xmlns="http://www.w3.org/2000/svg" xmlns:xlink="http://www.w3.org/1999/xlink">
    <!-- Generator: Sketch 59.1 (86144) - https://sketch.com -->
    <title>rating</title>
    <desc>Created with Sketch.</desc>
    <g id="----◉-SKIPPED-|-LANDING-PAGE" stroke="none" stroke-width="1" fill="none" fill-rule="evenodd">
        <g id="LANDING-PAGE" transform="translate(-80.000000, -1219.000000)" fill="#3C3F40" fill-rule="nonzero">
            <g id="Section---How-it-works" transform="translate(80.000000, 496.000000)">
                <g id="Skipped-Process" transform="translate(0.000000, 83.000000)">
                    <g id="Step---6" transform="translate(0.000000, 640.000000)">
                        <g id="rating">
                            <path d="M23.5073438,48.7504687 C24.6754688,48.1610937 26.0773438,48.60125 26.6990625,49.7525 L31.1114063,57.9228125 C31.4514062,58.5523438 32.175625,58.8701563 32.8692188,58.6951563 C33.5628125,58.5198437 34.0488818,57.8957813 34.0488818,57.1803125 L34.0488818,45.2504688 C34.0485938,44.3876563 33.3490625,43.688125 32.4860938,43.688125 C31.623125,43.688125 30.9235937,44.3878125 30.9235937,45.250625 L30.9235937,50.9990625 L29.4485938,48.2678125 C28.0170312,45.6173437 24.78875,44.6034375 22.0996875,45.960625 C19.7982812,47.1217187 18.613125,49.6826563 19.2176563,52.1884375 L22.078125,64.0448437 C22.7467187,66.8164062 23.93875,69.3889062 25.6209375,71.6909375 L31.2246875,79.3592187 C31.530625,79.7779687 32.0057812,80 32.4875,80 C32.8073438,80 33.1301562,79.9020312 33.408125,79.6989062 C34.1048438,79.1896875 34.2570312,78.2120312 33.7478125,77.5153125 L28.1440625,69.8470312 C26.70625,67.8795312 25.6875,65.6809375 25.1160937,63.3120312 L22.255625,51.4554687 C21.9929687,50.3670312 22.5078125,49.2548437 23.5073438,48.7504687 Z" id="Path"></path>
                            <path d="M58.7851562,42.090625 C57.863125,42.090625 56.9951562,42.3267187 56.2382812,42.74125 C55.4715625,40.7440625 53.5348437,39.3220312 51.2709375,39.3220312 C50.2945312,39.3220312 49.3795312,39.5876562 48.5921875,40.0485937 C47.750625,38.2176562 45.9004688,36.9423437 43.756875,36.9423437 C42.9745312,36.9423437 42.231875,37.1134375 41.5623437,37.4179687 L41.5623437,29.9475 C41.5623437,27.014375 39.1760937,24.6279687 36.2428125,24.6279687 C33.3095312,24.6279687 30.9232812,27.0142187 30.9232812,29.9475 L30.9232812,32.6559375 C30.9232812,33.51875 31.6228125,34.2184375 32.4857812,34.2184375 C33.34875,34.2184375 34.0482812,33.51875 34.0482812,32.6559375 L34.0482812,29.9476562 C34.0482812,28.7376562 35.0328125,27.753125 36.2428125,27.753125 C37.4528125,27.753125 38.4373437,28.7376562 38.4373437,29.9476562 L38.4373437,51.995625 C38.4373437,52.8584375 39.136875,53.558125 39.9998437,53.558125 C40.8628125,53.558125 41.5623437,52.8584375 41.5623437,51.995625 L41.5623437,42.2617188 C41.5623437,41.0517187 42.5467187,40.0671875 43.756875,40.0671875 C44.9670312,40.0671875 45.9514062,41.0517187 45.9514062,42.2617188 L45.9514062,51.995625 C45.9514062,52.8584375 46.6509375,53.558125 47.5139062,53.558125 C48.376875,53.558125 49.0764062,52.8584375 49.0764062,51.995625 L49.0764062,44.6415625 C49.0764062,43.4314062 50.0607812,42.446875 51.2709375,42.446875 C52.4810937,42.446875 53.4654687,43.4314062 53.4654687,44.6415625 L53.4654687,51.995625 C53.4654687,52.8584375 54.165,53.558125 55.0279687,53.558125 C55.8909375,53.558125 56.5904687,52.8584375 56.5904687,51.995625 L56.5904687,47.4098438 C56.5904687,46.1998438 57.575,45.2153125 58.785,45.2153125 C59.995,45.2153125 60.9795313,46.1998437 60.9795313,47.4098438 L60.9795313,60.5940625 C60.9795313,64.1071875 60.4464063,67.5884375 59.3951562,70.940625 L57.1910938,77.9690625 C56.9329688,78.7925 57.3910937,79.669375 58.2145313,79.9275 C58.3701563,79.9764062 58.5275,79.9995313 58.6825,79.9995313 C59.3471875,79.9995313 59.9635938,79.571875 60.1729688,78.9040625 L62.3770313,71.875625 C63.5232813,68.2203125 64.1045313,64.4245313 64.1045313,60.5940625 L64.1045313,47.4098437 C64.1045313,44.4770312 61.7184375,42.090625 58.7851562,42.090625 Z" id="Path"></path>
                            <path d="M79.8689063,8.28578125 C79.5570313,7.3265625 78.743125,6.64078125 77.7448438,6.4959375 L72.9590625,5.80203125 L70.8176563,1.46578125 C70.37125,0.5615625 69.4675,0 68.4592188,0 C68.4590625,0 68.45875,0 68.4585938,0 C67.4498438,0 66.5460938,0.56234375 66.1,1.46703125 L63.9609375,5.80421875 L59.1754688,6.5009375 C58.1773438,6.64625 57.36375,7.3325 57.0525,8.29203125 C56.7410938,9.25140625 56.9965625,10.2845312 57.7189063,10.9882812 L61.1828125,14.3629687 L60.3665625,19.1295312 C60.1964063,20.12375 60.5976563,21.1095312 61.41375,21.7020312 C61.8746875,22.036875 62.4139063,22.2067187 62.9567188,22.2067187 C63.375,22.2067187 63.7954688,22.1057812 64.1839063,21.9015625 L68.46375,19.65 L72.7448438,21.899375 C73.6376563,22.36875 74.6992188,22.2915625 75.515,21.6982812 C76.3307813,21.1051562 76.7315625,20.119375 76.560625,19.1251562 L75.741875,14.3590625 L79.2039063,10.9826562 C79.9259375,10.2782812 80.1807813,9.24484375 79.8689063,8.28578125 Z M73.3740625,12.3032813 C72.7539062,12.9078125 72.4714063,13.7784375 72.618125,14.631875 L73.31125,18.6667188 L69.6871875,16.7626563 C68.9204687,16.3595313 68.0051562,16.36 67.23875,16.763125 L63.615625,18.6692188 L64.3067188,14.63375 C64.4526563,13.7803125 64.1696875,12.9101563 63.549375,12.3057813 L60.616875,9.44890625 L64.6684375,8.85921875 C65.5251563,8.734375 66.2654688,8.19625 66.6484375,7.41953125 L68.459375,3.74796875 L70.2721875,7.4184375 C70.655625,8.195 71.3960938,8.73265625 72.2532813,8.8571875 L76.3048438,9.44484375 L73.3740625,12.3032813 Z" id="Shape"></path>
                            <path d="M51.4078125,8.28578125 C51.0959375,7.3265625 50.2821875,6.640625 49.2839063,6.4959375 L44.498125,5.80203125 L42.3567188,1.46578125 C41.9101563,0.5615625 41.0065625,0 39.998125,0 C39.9979688,0 39.9976563,0 39.9973438,0 C38.98875,0 38.085,0.56234375 37.6389063,1.46703125 L35.4998438,5.80421875 L30.714375,6.5009375 C29.71625,6.64625 28.9026563,7.3325 28.5914063,8.29203125 C28.28,9.25140625 28.5354688,10.2845313 29.2578125,10.9882812 L32.7215625,14.3628125 L31.9053125,19.129375 C31.7351563,20.1235938 32.1364063,21.109375 32.9525,21.701875 C33.4134375,22.0367188 33.9526563,22.2065625 34.4954688,22.2065625 C34.91375,22.2065625 35.3342188,22.105625 35.7226563,21.9014062 L40.0026563,19.65 L44.28375,21.8992187 C45.1765625,22.3685937 46.238125,22.2914062 47.0539063,21.698125 C47.8696875,21.105 48.2704688,20.1192187 48.0995313,19.125 L47.2807813,14.3589062 L50.7428125,10.9825 C51.4648438,10.2782813 51.7196875,9.245 51.4078125,8.28578125 Z M44.913125,12.3032813 C44.293125,12.9076562 44.010625,13.778125 44.1571875,14.631875 L44.8503125,18.6667188 L41.22625,16.7626562 C40.459375,16.3596875 39.5439062,16.3598437 38.7778125,16.763125 L35.1545312,18.6692187 L35.845625,14.63375 C35.9915625,13.7801563 35.7085937,12.91 35.0882812,12.3057812 L32.1559375,9.44890625 L36.2073437,8.85921875 C37.0640625,8.734375 37.804375,8.19625 38.1875,7.41953125 L39.9984375,3.7478125 L41.81125,7.4184375 C42.1945312,8.19484375 42.935,8.73265625 43.7923437,8.8571875 L47.8439062,9.44484375 L44.913125,12.3032813 Z" id="Shape"></path>
                            <path d="M22.946875,8.28578125 C22.635,7.3265625 21.8210937,6.64078125 20.8228125,6.4959375 L16.0370312,5.80203125 L13.8957812,1.46578125 C13.4492188,0.5615625 12.545625,0 11.5371875,0 C11.5370312,0 11.5367187,0 11.5364062,0 C10.5278125,0 9.6240625,0.56234375 9.17796875,1.46703125 L7.03890625,5.80421875 L2.2534375,6.5009375 C1.2553125,6.64625 0.441875,7.3325 0.13046875,8.291875 C-0.1809375,9.25125 0.07421875,10.284375 0.79671875,10.9882812 L4.260625,14.3629688 L3.444375,19.1295312 C3.27421875,20.12375 3.67546875,21.1095312 4.4915625,21.7021875 C4.95265625,22.036875 5.49171875,22.2067189 6.0346875,22.2067189 C6.45296875,22.2067189 6.8734375,22.1057813 7.261875,21.9015625 L11.541875,19.6501562 L15.8229687,21.899375 C16.7159375,22.3684375 17.7773437,22.2914062 18.593125,21.6984375 C19.4089063,21.1051562 19.8095312,20.1190625 19.63875,19.125 L18.82,14.3589062 L22.2820312,10.9825 C23.0039062,10.2782812 23.25875,9.245 22.946875,8.28578125 Z M16.4521875,12.303125 C15.8320312,12.9075 15.549375,13.778125 15.6960937,14.631875 L16.3892187,18.6667187 L12.7653125,16.7626562 C11.9985937,16.3596875 11.083125,16.3598437 10.316875,16.763125 L6.6934375,18.669375 L7.384375,14.6342187 C7.530625,13.7807812 7.24765625,12.9104687 6.6271875,12.3059375 L3.695,9.44890625 L7.74640625,8.85921875 C8.603125,8.734375 9.3434375,8.19625 9.72640625,7.41953125 L11.5373437,3.7478125 L13.3501563,7.4184375 C13.7334375,8.19484375 14.4739063,8.73265625 15.33125,8.8571875 L19.3829688,9.44484375 L16.4521875,12.303125 Z" id="Shape"></path>
                            <path d="M33.5907812,37.9890625 C33.3001562,37.6982813 32.8971875,37.53125 32.4860937,37.53125 C32.0751562,37.53125 31.6720312,37.6982813 31.3814063,37.9890625 C31.0907813,38.2798438 30.9235937,38.6826563 30.9235937,39.09375 C30.9235937,39.5046875 31.0907812,39.9078125 31.3814063,40.1982813 C31.6720313,40.4889063 32.0751562,40.65625 32.4860937,40.65625 C32.8970312,40.65625 33.3001563,40.4890625 33.5907812,40.1982813 C33.8814062,39.9078125 34.0485937,39.5046875 34.0485937,39.09375 C34.0485937,38.6825 33.8814062,38.2795313 33.5907812,37.9890625 Z" id="Path"></path>
                        </g>
                    </g>
                </g>
            </g>
        </g>
    </g>
</svg>