<?xml version="1.0" encoding="UTF-8"?>
<svg width="80px" height="80px" viewBox="0 0 80 80" version="1.1" xmlns="http://www.w3.org/2000/svg" xmlns:xlink="http://www.w3.org/1999/xlink">
    <!-- Generator: Sketch 59.1 (86144) - https://sketch.com -->
    <title>recruitment</title>
    <desc>Created with Sketch.</desc>
    <g id="----◉-SKIPPED-|-LANDING-PAGE" stroke="none" stroke-width="1" fill="none" fill-rule="evenodd">
        <g id="LANDING-PAGE" transform="translate(-80.000000, -579.000000)" fill="#3C3F40" fill-rule="nonzero">
            <g id="Section---How-it-works" transform="translate(80.000000, 496.000000)">
                <g id="Skipped-Process" transform="translate(0.000000, 83.000000)">
                    <g id="Step---1">
                        <g id="recruitment">
                            <path d="M72.0209375,42.2415106 C72.7278125,41.2013301 73.1409375,39.9490198 73.1409375,38.6027397 L73.1409375,37.358958 C73.1409375,33.7609693 70.19125,30.8336397 66.5657813,30.8336397 C64.756875,30.8336397 63.11625,31.5626034 61.92625,32.7398619 C58.8471875,23.6519285 50.1817188,17.0873786 40,17.0873786 C29.8182812,17.0873786 21.1528125,23.6517734 18.07375,32.7398619 C16.88375,31.5626034 15.2432813,30.8336397 13.4342187,30.8336397 C9.80875,30.8336397 6.8590625,33.7609693 6.8590625,37.358958 L6.8590625,38.6027397 C6.8590625,39.9490198 7.2721875,41.2013301 7.9790625,42.2415106 C3.42765625,43.1933036 0,47.208729 0,52.0045999 L0,55.126692 C0,55.9829646 0.6996875,56.6773486 1.5625,56.6773486 L9.6875,56.6773486 C10.5503125,56.6773486 11.25,55.9829646 11.25,55.126692 C11.25,54.2704194 10.5503125,53.5760353 9.6875,53.5760353 L3.125,53.5760353 L3.125,52.0045999 C3.125,48.2127792 6.2334375,45.1279029 10.0542188,45.1279029 L17.449375,45.1279029 C18.0490625,47.7455663 19.1001563,50.1949836 20.5182813,52.389783 L2.6903125,70.0826203 C0.4075,72.3482848 0.4075,76.0349709 2.69046875,78.3007904 C3.83203125,79.4337002 5.33125,80 6.83078125,80 C8.3303125,80 9.82984375,79.4335451 10.9714062,78.3007904 L20.8,68.5465398 C21.4101562,67.9410084 21.4101562,66.9591326 20.8,66.3534461 C20.1896875,65.7480698 19.200625,65.7480698 18.5901562,66.3534461 L8.76171875,76.1076967 C7.696875,77.1643142 5.9646875,77.1641591 4.9,76.1078518 C3.83546875,75.0512344 3.83546875,73.3320213 4.9,72.2754039 L22.4010937,54.907119 C26.6459375,59.8478212 32.9601562,62.9868155 40,62.9868155 C50.98875,62.9868155 60.2109375,55.3405276 62.550625,45.1279029 L69.9457813,45.1279029 C73.7665625,45.1279029 76.875,48.2127792 76.875,52.0045999 L76.875,53.5760353 L62.1875,53.5760353 C61.3246875,53.5760353 60.625,54.2704194 60.625,55.126692 C60.625,55.9829646 61.3246875,56.6773486 62.1875,56.6773486 L78.4375,56.6773486 C79.3003125,56.6773486 80,55.9829646 80,55.126692 L80,52.0045999 C80,47.208729 76.5723438,43.1933036 72.0209375,42.2415106 Z M16.884375,38.6028947 C16.884375,40.4908192 15.3367187,42.0267446 13.4342187,42.0267446 C11.5317188,42.0267446 9.9840625,40.4908192 9.9840625,38.6028947 L9.9840625,37.359113 C9.9840625,35.4710335 11.5317188,33.9351081 13.4342187,33.9351081 C15.3367187,33.9351081 16.884375,35.4710335 16.884375,37.359113 L16.884375,38.6028947 Z M40,59.8855022 C28.9720313,59.8855022 20,50.9814766 20,40.0370971 C20,29.0927175 28.9720313,20.1886919 40,20.1886919 C51.0279688,20.1886919 60,29.0927175 60,40.0370971 C60,50.9814766 51.0279688,59.8855022 40,59.8855022 Z M70.0157813,38.6028947 C70.0157813,40.4908192 68.468125,42.0267446 66.565625,42.0267446 C64.663125,42.0267446 63.1154688,40.4908192 63.1154688,38.6028947 L63.1154688,37.359113 C63.1154688,35.4710335 64.663125,33.9351081 66.565625,33.9351081 C68.468125,33.9351081 70.0157813,35.4710335 70.0157813,37.359113 L70.0157813,38.6028947 Z" id="Shape"></path>
                            <path d="M39.6116505,22.5242718 C30.1895433,22.5242718 22.5242718,30.1895433 22.5242718,39.6116505 C22.5242718,44.5021215 24.5899461,48.9187343 27.8938224,52.0363898 C27.9503056,52.0974613 28.0109026,52.1550521 28.0773535,52.2072636 C31.1192233,54.995196 35.1700396,56.6990291 39.6116505,56.6990291 C44.0532614,56.6990291 48.1040777,54.9950378 51.1459475,52.2072636 C51.2123984,52.1552104 51.2729953,52.0974613 51.3294786,52.0363898 C54.6333549,48.9187343 56.6990291,44.5021215 56.6990291,39.6116505 C56.6990291,30.1897015 49.0337576,22.5242718 39.6116505,22.5242718 Z M39.6116505,53.5346997 C36.3582452,53.5346997 33.3622582,52.4127868 30.9893276,50.5358648 C32.6703776,47.3550809 35.9464078,45.3538008 39.6116505,45.3538008 C43.2768932,45.3538008 46.5529234,47.3550809 48.2339734,50.5358648 C45.8610428,52.4127868 42.8650557,53.5346997 39.6116505,53.5346997 Z M36.2775548,38.8553758 L36.2775548,37.626192 C36.2775548,35.7877166 37.7731751,34.2920964 39.6116505,34.2920964 C41.4501259,34.2920964 42.9457461,35.7877166 42.9457461,37.626192 L42.9457461,38.8553758 C42.9457461,40.6938511 41.4501259,42.1894714 39.6116505,42.1894714 C37.7731751,42.1894714 36.2775548,40.6938511 36.2775548,38.8553758 Z M50.5483639,48.2184682 C49.0989428,45.9058181 46.9774182,44.1421791 44.4943689,43.1365552 C45.4988853,41.9921755 46.1100755,40.4943402 46.1100755,38.855534 L46.1100755,37.6263502 C46.1100755,34.0432219 43.1947789,31.1279252 39.6116505,31.1279252 C36.0285221,31.1279252 33.1132255,34.0432219 33.1132255,37.6263502 L33.1132255,38.855534 C33.1132255,40.4943402 33.7242575,41.9921755 34.728932,43.1365552 C32.2458828,44.1423373 30.1245164,45.9058181 28.6749371,48.2184682 C26.8054513,45.848069 25.6886012,42.857936 25.6886012,39.6116505 C25.6886012,31.9345128 31.9345128,25.6886012 39.6116505,25.6886012 C47.2887882,25.6886012 53.5346997,31.9345128 53.5346997,39.6116505 C53.5346997,42.857936 52.4178497,45.848069 50.5483639,48.2184682 Z" id="Shape"></path>
                            <path d="M24.3992233,61.8143689 C24.1102913,61.5254369 23.7095146,61.3592233 23.3009709,61.3592233 C22.8924272,61.3592233 22.4916505,61.5254369 22.2027184,61.8143689 C21.9139417,62.103301 21.7475728,62.5040777 21.7475728,62.9126214 C21.7475728,63.321165 21.9137864,63.7219417 22.2027184,64.0108738 C22.4916505,64.2996505 22.8924272,64.4660194 23.3009709,64.4660194 C23.7095146,64.4660194 24.1102913,64.2998058 24.3992233,64.0108738 C24.688,63.7219417 24.8543689,63.321165 24.8543689,62.9126214 C24.8543689,62.5040777 24.6881553,62.103301 24.3992233,61.8143689 Z" id="Path"></path>
                            <path d="M40.3883495,0 C39.5305631,0 38.8349515,0.708178602 38.8349515,1.58146182 L38.8349515,6.9622275 C38.8349515,7.83566886 39.5305631,8.54368932 40.3883495,8.54368932 C41.2461359,8.54368932 41.9417476,7.83551072 41.9417476,6.9622275 L41.9417476,1.58146182 C41.9417476,0.708178602 41.2461359,0 40.3883495,0 Z" id="Path"></path>
                            <path d="M41.4864466,11.328932 C41.1976699,11.04 40.7982913,10.8737864 40.3883495,10.8737864 C39.9796505,10.8737864 39.5790291,11.0398447 39.2900971,11.328932 C39.001165,11.6180194 38.8349515,12.0186408 38.8349515,12.4271845 C38.8349515,12.8357282 39.0010097,13.2365049 39.2900971,13.5252816 C39.5790291,13.8142136 39.9796505,13.9805825 40.3883495,13.9805825 C40.7984466,13.9805825 41.1976699,13.8143689 41.4864466,13.5252816 C41.7753786,13.2365049 41.9417476,12.8357282 41.9417476,12.4271845 C41.9417476,12.0186408 41.775534,11.6178641 41.4864466,11.328932 Z" id="Path"></path>
                            <path d="M53.1079394,5.92106922 C52.4620493,5.2755012 51.4153302,5.2755012 50.7692747,5.92106922 L47.8629344,8.82744822 C47.2172096,9.4731816 47.2172096,10.5202453 47.8629344,11.1661441 C48.1860448,11.4889281 48.6090317,11.6504854 49.0323494,11.6504854 C49.4556671,11.6504854 49.878654,11.4889281 50.2015991,11.1661441 L53.1079394,8.25976506 C53.7536642,7.61403168 53.7536642,6.56696797 53.1079394,5.92106922 Z" id="Path"></path>
                            <path d="M32.139234,8.84008812 L29.2180859,5.91890137 C28.5750876,5.27622382 27.5330551,5.27622382 26.8898922,5.91890137 C26.2470586,6.56174353 26.2470586,7.60411911 26.8898922,8.2471259 L29.8112049,11.1683127 C30.132704,11.4896514 30.5539617,11.6504854 30.9752194,11.6504854 C31.3964771,11.6504854 31.8177348,11.4896514 32.139234,11.1683127 C32.7820676,10.5254705 32.7820676,9.48309491 32.139234,8.84008812 Z" id="Path"></path>
                        </g>
                    </g>
                </g>
            </g>
        </g>
    </g>
</svg>