<?xml version="1.0" encoding="UTF-8"?>
<svg width="120px" height="134px" viewBox="0 0 120 134" version="1.1" xmlns="http://www.w3.org/2000/svg" xmlns:xlink="http://www.w3.org/1999/xlink">
    <!-- Generator: Sketch 59.1 (86144) - https://sketch.com -->
    <title>resume</title>
    <desc>Created with Sketch.</desc>
    <g id="----◉-SKIPPED-|-LANDING-PAGE" stroke="none" stroke-width="1" fill="none" fill-rule="evenodd">
        <g id="LANDING-PAGE" transform="translate(-784.000000, -2468.000000)" fill="#3C3F40" fill-rule="nonzero">
            <g id="Section---Information" transform="translate(0.000000, 2071.000000)">
                <g id="value-prop-2" transform="translate(161.000000, 364.000000)">
                    <g id="resume" transform="translate(623.000000, 33.000000)">
                        <path d="M61.8443478,93.1082609 C61.3593913,92.6230435 60.6863478,92.343913 60.0002609,92.343913 C59.3141739,92.343913 58.6411304,92.6230435 58.155913,93.1082609 C57.6706957,93.5934783 57.3915652,94.2665217 57.3915652,94.9526087 C57.3915652,95.6386957 57.6704348,96.3091304 58.155913,96.7969565 C58.6411304,97.281913 59.3141739,97.5613043 60.0002609,97.5613043 C60.6863478,97.5613043 61.3593913,97.2821739 61.8443478,96.7969565 C62.3295652,96.3117391 62.6089565,95.6386957 62.6089565,94.9526087 C62.6089565,94.263913 62.3298261,93.5934783 61.8443478,93.1082609 Z" id="Path"></path>
                        <path d="M112.488,14.0864348 L97.0453043,14.0864348 L97.0453043,5.21765217 C97.0453043,2.34052174 94.7045217,0 91.8276522,0 L28.1728696,0 C25.296,0 22.9552174,2.34052174 22.9552174,5.21765217 L22.9552174,14.0864348 L7.51226087,14.0864348 C3.5126087,14.0864348 0.258521739,17.3345217 0.258521739,21.3268696 L0.258521739,98.6715652 C0.258521739,102.664174 3.5126087,105.912 7.51226087,105.912 L47.2116522,105.912 L47.2116522,117.96313 C40.6304348,118.629652 35.4772174,124.202609 35.4772174,130.956522 C35.4772174,132.397043 36.6453913,133.565217 38.085913,133.565217 L81.9138261,133.565217 C83.3543478,133.565217 84.5225217,132.397043 84.5225217,130.956522 C84.5225217,124.20287 79.3693043,118.629913 72.7883478,117.96313 L72.7883478,105.912 L112.487739,105.912 C116.487391,105.912 119.741478,102.663913 119.741478,98.6715652 L119.741478,21.3268696 C119.741478,17.3345217 116.487652,14.0864348 112.488,14.0864348 Z M5.47591304,21.3268696 C5.47591304,20.2116522 6.38947826,19.304087 7.512,19.304087 L22.9546957,19.304087 L22.9546957,36.7841739 C22.9546957,38.2249565 24.1228696,39.3928696 25.5633913,39.3928696 C27.003913,39.3928696 28.172087,38.2249565 28.172087,36.7841739 L28.172087,5.21765217 L91.8268696,5.21765217 L91.8268696,83.997913 L28.172087,83.997913 L28.172087,55.6625217 C28.172087,54.2217391 27.003913,53.0538261 25.5633913,53.0538261 C24.1228696,53.0538261 22.9546957,54.2217391 22.9546957,55.6625217 L22.9546957,83.997913 L5.47591304,83.997913 L5.47591304,21.3268696 Z M78.8590435,128.347565 L41.1409565,128.347565 C42.2183478,125.301391 45.1270435,123.113478 48.5376522,123.113478 L49.8206087,123.113478 L70.179913,123.113478 L71.4623478,123.113478 C74.8729565,123.113739 77.7816522,125.301913 78.8590435,128.347565 Z M52.4293043,117.896348 L52.4293043,105.912 L67.5709565,105.912 L67.5709565,117.896348 L52.4293043,117.896348 Z M114.524087,98.6715652 C114.524087,99.7870435 113.611043,100.694348 112.488261,100.694348 L7.51226087,100.694348 C6.38947826,100.694348 5.47617391,99.7867826 5.47617391,98.6715652 L5.47617391,89.2158261 L25.563913,89.2158261 L94.4363478,89.2158261 L114.524087,89.2158261 L114.524087,98.6715652 Z M114.524348,83.997913 L97.0453043,83.997913 L97.0453043,19.304087 L112.488,19.304087 C113.610783,19.304087 114.524087,20.2116522 114.524087,21.3268696 L114.524087,83.997913 L114.524348,83.997913 Z" id="Shape"></path>
                        <path d="M60.0002609,10.4353043 C49.3552174,10.4353043 40.6951304,19.0953913 40.6951304,29.7404348 C40.6951304,35.2317391 43.0033043,40.1911304 46.6964348,43.7094783 C46.7906087,43.814087 46.892087,43.9132174 47.0037391,44.0024348 C50.4365217,47.1333913 54.9988696,49.0455652 60.0002609,49.0455652 C65.0016522,49.0455652 69.564,47.1333913 72.9967826,44.0024348 C73.1084348,43.9132174 73.2096522,43.814087 73.304087,43.7094783 C76.9969565,40.1908696 79.3053913,35.2317391 79.3053913,29.7404348 C79.3053913,19.0953913 70.6453043,10.4353043 60.0002609,10.4353043 Z M60.0002609,43.827913 C56.9908696,43.827913 54.2008696,42.8762609 51.9093913,41.2622609 C53.649913,38.523913 56.6582609,36.8287826 60.0002609,36.8287826 C63.3422609,36.8287826 66.3506087,38.523913 68.0911304,41.2622609 C65.7996522,42.8762609 63.0096522,43.827913 60.0002609,43.827913 Z M57.3151304,28.926 L57.3151304,27.6026087 C57.3151304,26.1221739 58.5195652,24.9177391 60.0002609,24.9177391 C61.4809565,24.9177391 62.6853913,26.1221739 62.6853913,27.6026087 L62.6853913,28.926 C62.6853913,30.4066957 61.4809565,31.6111304 60.0002609,31.6111304 C58.5195652,31.6111304 57.3151304,30.4066957 57.3151304,28.926 Z M71.79,37.4376522 C70.4186087,35.630087 68.6616522,34.178087 66.657913,33.1755652 C67.4446957,31.9473913 67.9030435,30.4896522 67.9030435,28.9257391 L67.9030435,27.6023478 C67.9030435,23.2447826 64.3575652,19.6998261 60.0002609,19.6998261 C55.6429565,19.6998261 52.0974783,23.2450435 52.0974783,27.6023478 L52.0974783,28.9257391 C52.0974783,30.4893913 52.5558261,31.9471304 53.3426087,33.1755652 C51.3388696,34.178087 49.5816522,35.6298261 48.2105217,37.4376522 C46.7598261,35.2233913 45.9127826,32.5794783 45.9127826,29.7404348 C45.9127826,21.9725217 52.2323478,15.6529565 60.0002609,15.6529565 C67.767913,15.6529565 74.0877391,21.9725217 74.0877391,29.7404348 C74.0877391,32.5794783 73.2406957,35.2233913 71.79,37.4376522 Z" id="Shape"></path>
                        <path d="M27.4082609,43.8096522 C26.9233043,43.3244348 26.2502609,43.0453043 25.5641739,43.0453043 C24.878087,43.0453043 24.2050435,43.3244348 23.7198261,43.8096522 C23.2346087,44.2948696 22.9554783,44.967913 22.9554783,45.654 C22.9554783,46.340087 23.2343478,47.0131304 23.7198261,47.4983478 C24.2053043,47.9835652 24.878087,48.2626957 25.5641739,48.2626957 C26.2502609,48.2626957 26.9233043,47.9835652 27.4082609,47.4983478 C27.8934783,47.0131304 28.1728696,46.340087 28.1728696,45.654 C28.1728696,44.967913 27.8937391,44.2948696 27.4082609,43.8096522 Z" id="Path"></path>
                        <path d="M76.1749565,55.3066957 L45.9127826,55.3066957 C44.4722609,55.3066957 43.304087,56.4746087 43.304087,57.9153913 C43.304087,59.3561739 44.4722609,60.524087 45.9127826,60.524087 L76.1749565,60.524087 C77.6154783,60.524087 78.7836522,59.3561739 78.7836522,57.9153913 C78.7836522,56.4746087 77.6154783,55.3066957 76.1749565,55.3066957 Z" id="Path"></path>
                        <path d="M78.0190435,67.5498261 C77.534087,67.0643478 76.8610435,66.7854783 76.1749565,66.7854783 C75.4888696,66.7854783 74.8158261,67.0643478 74.3306087,67.5498261 C73.8453913,68.0353043 73.5662609,68.708087 73.5662609,69.3941739 C73.5662609,70.0802609 73.8451304,70.7533043 74.3306087,71.2382609 C74.8158261,71.7234783 75.4888696,72.0028696 76.1749565,72.0028696 C76.8610435,72.0028696 77.534087,71.7237391 78.0190435,71.2382609 C78.5042609,70.7533043 78.7836522,70.0802609 78.7836522,69.3941739 C78.7836522,68.708087 78.5045217,68.0350435 78.0190435,67.5498261 Z" id="Path"></path>
                        <path d="M66.1755652,66.7852174 L45.9127826,66.7852174 C44.4722609,66.7852174 43.304087,67.9533913 43.304087,69.393913 C43.304087,70.8344348 44.4722609,72.0026087 45.9127826,72.0026087 L66.1755652,72.0026087 C67.616087,72.0026087 68.7842609,70.8344348 68.7842609,69.393913 C68.7842609,67.9533913 67.616087,66.7852174 66.1755652,66.7852174 Z" id="Path"></path>
                    </g>
                </g>
            </g>
        </g>
    </g>
</svg>