<?xml version="1.0" encoding="UTF-8"?>
<svg width="24px" height="24px" viewBox="0 0 24 24" version="1.1" xmlns="http://www.w3.org/2000/svg" xmlns:xlink="http://www.w3.org/1999/xlink">
    <!-- Generator: Sketch 59.1 (86144) - https://sketch.com -->
    <title>Search</title>
    <desc>Created with Sketch.</desc>
    <g id="----◉-SKIPPED-|-DASHBOARD-PAGE-|-CANDIDATE-✅" stroke="none" stroke-width="1" fill="none" fill-rule="evenodd">
        <g id="Dashboard-Page-|-Logged-In" transform="translate(-770.000000, -128.000000)" fill="#FFFFFF">
            <g id="bar---search-bar" transform="translate(40.000000, 115.000000)">
                <g id="Resources/Search" transform="translate(730.000000, 13.000000)">
                    <path d="M23.5595908,21.5555241 L16.9887337,14.9820955 C18.1665692,13.3756446 18.7975311,11.4334838 18.7887337,9.44152409 C18.7662599,4.24184823 14.5606571,0.030127611 9.3610194,9.55162736e-05 C6.87269967,-0.0111626965 4.48322749,0.973221064 2.72490966,2.73395394 C0.966591839,4.49468681 -0.0145113062,6.88550787 0.00016225752,9.3738098 C0.0226360473,14.573959 4.22862261,18.7860634 9.42873369,18.8160955 C11.4288083,18.8247641 13.3780648,18.1864374 14.9855908,16.9963812 L14.992448,16.9912384 L21.5573051,23.5595241 C21.912246,23.9318901 22.4411322,24.0826151 22.939045,23.9533002 C23.4369577,23.8239853 23.8256605,23.4349497 23.9545493,22.9369264 C24.083438,22.4389032 23.9322604,21.9101462 23.5595908,21.5555241 L23.5595908,21.5555241 Z M9.42187654,16.9338098 C5.26201494,16.9098801 1.8972804,13.5405573 1.8790194,9.38066694 C1.86779184,7.39028321 2.65273893,5.47801049 4.05912835,4.06952823 C5.46551777,2.66104597 7.37662117,1.87325622 9.3670194,1.88152409 C13.526881,1.90545378 16.8916155,5.27477659 16.9098765,9.43466694 C16.9211041,11.4250507 16.136157,13.3373234 14.7297676,14.7458057 C13.3233782,16.1542879 11.4122748,16.9420777 9.42187654,16.9338098 Z" id="Search"></path>
                </g>
            </g>
        </g>
    </g>
</svg>