<?xml version="1.0" encoding="UTF-8"?>
<svg width="80px" height="80px" viewBox="0 0 80 80" version="1.1" xmlns="http://www.w3.org/2000/svg" xmlns:xlink="http://www.w3.org/1999/xlink">
    <!-- Generator: Sketch 59.1 (86144) - https://sketch.com -->
    <title>video-conference</title>
    <desc>Created with Sketch.</desc>
    <g id="----◉-SKIPPED-|-LANDING-PAGE" stroke="none" stroke-width="1" fill="none" fill-rule="evenodd">
        <g id="LANDING-PAGE" transform="translate(-80.000000, -835.000000)" fill="#3C3F40" fill-rule="nonzero">
            <g id="Section---How-it-works" transform="translate(80.000000, 496.000000)">
                <g id="Skipped-Process" transform="translate(0.000000, 83.000000)">
                    <g id="Step---3" transform="translate(0.000000, 256.000000)">
                        <g id="video-conference">
                            <path d="M36.8857813,55.7671875 C36.5953125,55.475 36.1921875,55.309375 35.78125,55.309375 C35.3703125,55.309375 34.9671875,55.475 34.6765625,55.7671875 C34.3859375,56.0578125 34.21875,56.459375 34.21875,56.871875 C34.21875,57.2828125 34.3857813,57.6859375 34.6765625,57.9765625 C34.9671875,58.2671875 35.3703125,58.434375 35.78125,58.434375 C36.1921875,58.434375 36.5953125,58.2671875 36.8857813,57.9765625 C37.1764062,57.6859375 37.34375,57.2828125 37.34375,56.871875 C37.34375,56.4609375 37.1765625,56.0578125 36.8857813,55.7671875 Z" id="Path"></path>
                            <path d="M70,41.8765625 C69.1371875,41.8765625 68.4375,42.5760937 68.4375,43.4390625 L68.4375,50.3107812 L41.5625,50.3107812 L41.5625,46.4540625 C41.5625,40.5125 37.0946875,35.598125 31.3429688,34.8853125 C32.4796875,33.4825 33.1626562,31.6976562 33.1626562,29.7554687 L33.1626562,18.7632812 C33.1626562,17.9003125 32.4629687,17.2007812 31.6001562,17.2007812 L23.4248437,17.2007812 C19.7926563,17.2007812 16.8376562,20.1557812 16.8376562,23.7879687 L16.8376562,29.7554687 C16.8376562,31.6975 17.5204687,33.4823437 18.6573437,34.8853125 C12.9053125,35.5982812 8.4375,40.5126562 8.4375,46.4542188 L8.4375,50.3109375 L3.125,50.3109375 L3.125,12.7725 C3.125,12.104375 3.67203125,11.5609375 4.34453125,11.5609375 L36.8229688,11.5609375 C37.6857813,11.5609375 38.3854688,10.8614063 38.3854688,9.9984375 C38.3854688,9.13546875 37.6857813,8.4359375 36.8229688,8.4359375 L4.34453125,8.4359375 C1.9490625,8.4359375 0,10.38125 0,12.7725 L0,59.099375 C0,61.490625 1.9490625,63.4359375 4.34453125,63.4359375 L28.121875,63.4359375 L28.121875,70.65375 C24.1801562,71.0529687 21.09375,74.3907813 21.09375,78.4359375 C21.09375,79.2989063 21.7934375,79.9984375 22.65625,79.9984375 L48.90625,79.9984375 C49.7690625,79.9984375 50.46875,79.2989063 50.46875,78.4359375 C50.46875,74.3909375 47.3823438,71.053125 43.4407813,70.65375 L43.4407813,63.4359375 L67.218125,63.4359375 C69.6135938,63.4359375 71.5626563,61.490625 71.5626563,59.099375 L71.5626563,43.4390625 C71.5626563,42.57625 70.8628125,41.8765625 70,41.8765625 Z M19.9625,23.7882813 C19.9625,21.8792188 21.515625,20.3260938 23.4246875,20.3260938 L30.0375,20.3260938 L30.0375,22.8207813 C30.0375,24.0601563 29.0292187,25.0684375 27.7896875,25.0684375 L19.9625,25.0684375 L19.9625,23.7882813 Z M19.9625,28.1934375 L27.7898437,28.1934375 C28.5921875,28.1934375 29.3532812,28.0154687 30.0376562,27.69875 L30.0376562,29.7557813 L30.0375,29.7557813 C30.0375,32.5334375 27.7776562,34.7932813 25,34.7932813 C22.2223438,34.7932813 19.9625,32.5334375 19.9625,29.7557813 L19.9625,28.1934375 Z M26.8232813,37.9182812 L25,39.7415625 L23.1767187,37.9182812 L26.8232813,37.9182812 Z M11.5625,46.4542188 C11.5625,42.171875 14.7328125,38.616875 18.849375,38.0104688 L23.895,43.0560938 C24.2001562,43.36125 24.6,43.51375 24.9998437,43.51375 C25.3996875,43.51375 25.7995312,43.36125 26.1046875,43.0560938 L31.1503125,38.0104688 C35.2671875,38.616875 38.4375,42.171875 38.4375,46.4542188 L38.4375,50.3109375 L11.5625,50.3109375 L11.5625,46.4542188 Z M47.0764062,76.8734375 L24.4857812,76.8734375 C25.1310937,75.0490625 26.873125,73.7385938 28.9159375,73.7385938 L29.684375,73.7385938 L41.8782812,73.7385938 L42.6464062,73.7385938 C44.6890625,73.7385938 46.4310937,75.0489062 47.0764062,76.8734375 Z M31.246875,70.6135938 L31.246875,63.4359375 L40.3157812,63.4359375 L40.3157812,70.6135938 L31.246875,70.6135938 Z M68.4375,59.099375 C68.4375,59.7673437 67.8904688,60.3109375 67.2179687,60.3109375 L4.34453125,60.3109375 C3.67203125,60.3109375 3.125,59.7673438 3.125,59.099375 L3.125,53.4359375 L68.4375,53.4359375 L68.4375,59.099375 Z" id="Shape"></path>
                            <path d="M71.1045313,36.4484375 C70.8140625,36.1578125 70.4109375,35.990625 70,35.990625 C69.5890625,35.990625 69.1859375,36.1578125 68.8953125,36.4484375 C68.6046875,36.740625 68.4375,37.1421875 68.4375,37.553125 C68.4375,37.965625 68.6045313,38.3671875 68.8953125,38.6578125 C69.1859375,38.95 69.5890625,39.115625 70,39.115625 C70.4109375,39.115625 70.8140625,38.95 71.1045313,38.6578125 C71.3951562,38.3671875 71.5625,37.965625 71.5625,37.553125 C71.5625,37.1421875 71.3953125,36.7390625 71.1045313,36.4484375 Z" id="Path"></path>
                            <path d="M70,7.3453125 L58.28125,7.3453125 C57.4184375,7.3453125 56.71875,8.04484375 56.71875,8.9078125 C56.71875,9.77078125 57.4184375,10.4703125 58.28125,10.4703125 L70,10.4703125 C70.8628125,10.4703125 71.5625,9.77078125 71.5625,8.9078125 C71.5625,8.04484375 70.8628125,7.3453125 70,7.3453125 Z" id="Path"></path>
                            <path d="M52.9795313,7.803125 C52.6890625,7.5125 52.2859375,7.3453125 51.875,7.3453125 C51.4640625,7.3453125 51.0609375,7.5125 50.7703125,7.803125 C50.4796875,8.09375 50.3125,8.496875 50.3125,8.9078125 C50.3125,9.31875 50.4795313,9.721875 50.7703125,10.0125 C51.0610937,10.303125 51.4640625,10.4703125 51.875,10.4703125 C52.2859375,10.4703125 52.6890625,10.303125 52.9795313,10.0125 C53.2701563,9.721875 53.4375,9.31875 53.4375,8.9078125 C53.4375,8.496875 53.2703125,8.09375 52.9795313,7.803125 Z" id="Path"></path>
                            <path d="M70,14.2203125 L51.875,14.2203125 C51.0121875,14.2203125 50.3125,14.9198438 50.3125,15.7828125 C50.3125,16.6457813 51.0121875,17.3453125 51.875,17.3453125 L70,17.3453125 C70.8628125,17.3453125 71.5625,16.6457813 71.5625,15.7828125 C71.5625,14.9198438 70.8628125,14.2203125 70,14.2203125 Z" id="Path"></path>
                            <path d="M70,21.0953125 L51.875,21.0953125 C51.0121875,21.0953125 50.3125,21.7948437 50.3125,22.6578125 C50.3125,23.5207812 51.0121875,24.2203125 51.875,24.2203125 L70,24.2203125 C70.8628125,24.2203125 71.5625,23.5207812 71.5625,22.6578125 C71.5625,21.7948437 70.8628125,21.0953125 70,21.0953125 Z" id="Path"></path>
                            <path d="M72.1875,0.0015625 L49.6875,0.0015625 C45.3796875,0.0015625 41.875,3.50625 41.875,7.8140625 L41.875,24.5328125 C41.875,28.5414063 44.909375,31.8545313 48.8020312,32.2954688 L48.8020312,36.355625 C48.8020312,36.9875 49.1828125,37.5573438 49.7665625,37.7992188 C49.9598437,37.879375 50.1629687,37.9182813 50.3642187,37.9182813 C50.7709375,37.9182813 51.1704687,37.759375 51.469375,37.460625 L56.5845312,32.3453125 L72.1875,32.3453125 C76.4953125,32.3453125 80,28.840625 80,24.5328125 L80,7.8140625 C80,3.50625 76.4953125,0.0015625 72.1875,0.0015625 Z M76.875,24.5328125 C76.875,27.1175 74.7721875,29.2203125 72.1875,29.2203125 L55.9375,29.2203125 C55.523125,29.2203125 55.1257813,29.385 54.8326562,29.6779688 L51.9270312,32.5835938 L51.9270312,30.7828125 C51.9270312,29.9198438 51.2273437,29.2203125 50.3645312,29.2203125 L49.6875,29.2203125 C47.1028125,29.2203125 45,27.1175 45,24.5328125 L45,7.8140625 C45,5.229375 47.1028125,3.1265625 49.6875,3.1265625 L72.1875,3.1265625 C74.7721875,3.1265625 76.875,5.229375 76.875,7.8140625 L76.875,24.5328125 Z" id="Shape"></path>
                        </g>
                    </g>
                </g>
            </g>
        </g>
    </g>
</svg>